<svg width="216" height="35" viewBox="0 0 216 35" fill="none" xmlns="http://www.w3.org/2000/svg">
<path d="M178.759 8.25H178.259V8.75V21V21.5H178.759H208.552H209.052V21V8.75V8.25H208.552H178.759Z" fill="white" stroke="#DDDDDD"/>
<path d="M180.621 19.25V10.5H183.424C184.355 10.5 185.054 10.6963 185.521 11.0889C185.993 11.4816 186.228 12.0625 186.228 12.8317C186.228 13.2404 186.114 13.603 185.886 13.9195C185.659 14.232 185.349 14.4744 184.956 14.6466C185.419 14.7788 185.784 15.0312 186.051 15.4038C186.322 15.7724 186.458 16.2131 186.458 16.726C186.458 17.5112 186.208 18.1282 185.71 18.5769C185.211 19.0256 184.506 19.25 183.595 19.25H180.621ZM181.752 15.1575V18.3065H183.619C184.145 18.3065 184.559 18.1683 184.862 17.8918C185.168 17.6114 185.321 17.2268 185.321 16.738C185.321 15.6843 184.76 15.1575 183.636 15.1575H181.752ZM181.752 14.232H183.46C183.955 14.232 184.349 14.1058 184.644 13.8534C184.942 13.601 185.091 13.2584 185.091 12.8257C185.091 12.345 184.954 11.9964 184.679 11.78C184.404 11.5597 183.986 11.4495 183.424 11.4495H181.752V14.232Z" fill="#B3B3B3"/>
<path d="M192.984 15.2055H189.267V18.3065H193.585V19.25H188.137V10.5H193.526V11.4495H189.267V14.262H192.984V15.2055Z" fill="#B3B3B3"/>
<path d="M201.036 11.4495H198.279V19.25H197.154V11.4495H194.404V10.5H201.036V11.4495Z" fill="#B3B3B3"/>
<path d="M206.573 16.9663H202.98L202.173 19.25H201.006L204.281 10.5H205.271L208.552 19.25H207.391L206.573 16.9663ZM203.321 16.0168H206.237L204.776 11.9243L203.321 16.0168Z" fill="#B3B3B3"/>
<path d="M9.614 21.44C8.074 21.44 6.644 21.0367 5.324 20.23C4.004 19.4233 2.95533 18.3527 2.178 17.018C1.41533 15.6687 1.034 14.224 1.034 12.684C1.034 11.1587 1.42267 9.736 2.2 8.416C2.97733 7.08133 4.026 6.02533 5.346 5.248C6.666 4.456 8.096 4.06 9.636 4.06C11.1907 4.06 12.6207 4.44867 13.926 5.226C15.2313 6.00333 16.2653 7.05933 17.028 8.394C17.8053 9.714 18.194 11.144 18.194 12.684C18.194 14.268 17.8053 15.7347 17.028 17.084C16.2653 18.4187 15.224 19.482 13.904 20.274C12.5987 21.0513 11.1687 21.44 9.614 21.44ZM9.614 20.802C11.022 20.802 12.3273 20.4427 13.53 19.724C14.7327 18.9907 15.686 18.008 16.39 16.776C17.1087 15.5293 17.468 14.18 17.468 12.728C17.468 11.2907 17.116 9.956 16.412 8.724C15.708 7.492 14.7547 6.51667 13.552 5.798C12.3493 5.06467 11.044 4.698 9.636 4.698C8.21333 4.698 6.90067 5.06467 5.698 5.798C4.49533 6.51667 3.53467 7.492 2.816 8.724C2.112 9.956 1.76 11.2907 1.76 12.728C1.76 14.18 2.112 15.5293 2.816 16.776C3.53467 18.008 4.49533 18.9907 5.698 19.724C6.90067 20.4427 8.206 20.802 9.614 20.802ZM25.8065 21.242C24.9118 21.242 24.0465 21 23.2105 20.516C22.3892 20.032 21.7585 19.394 21.3185 18.602V21H20.6145V4.5H21.3185V13.608C21.7145 12.772 22.3305 12.1047 23.1665 11.606C24.0025 11.1073 24.8825 10.858 25.8065 10.858C26.7598 10.858 27.6325 11.0927 28.4245 11.562C29.2312 12.0313 29.8692 12.662 30.3385 13.454C30.8078 14.246 31.0425 15.1113 31.0425 16.05C31.0425 16.9887 30.8078 17.854 30.3385 18.646C29.8692 19.438 29.2312 20.0687 28.4245 20.538C27.6325 21.0073 26.7598 21.242 25.8065 21.242ZM25.8505 20.626C26.6572 20.626 27.4052 20.4207 28.0945 20.01C28.7838 19.5847 29.3265 19.0273 29.7225 18.338C30.1332 17.634 30.3385 16.8713 30.3385 16.05C30.3385 15.2433 30.1332 14.488 29.7225 13.784C29.3118 13.08 28.7618 12.5227 28.0725 12.112C27.3832 11.6867 26.6352 11.474 25.8285 11.474C25.0218 11.474 24.2665 11.6867 23.5625 12.112C22.8732 12.5373 22.3158 13.102 21.8905 13.806C21.4798 14.51 21.2745 15.2653 21.2745 16.072C21.2745 16.8787 21.4798 17.634 21.8905 18.338C22.3158 19.0273 22.8805 19.5847 23.5845 20.01C24.2885 20.4207 25.0438 20.626 25.8505 20.626ZM35.6453 21.242C34.9413 21.242 34.318 21.1247 33.7753 20.89C33.2327 20.6407 32.844 20.3253 32.6093 19.944V18.778C32.888 19.4087 33.2693 19.878 33.7533 20.186C34.2373 20.4793 34.8533 20.626 35.6013 20.626C36.32 20.626 36.8993 20.406 37.3393 19.966C37.7793 19.5113 37.9993 18.932 37.9993 18.228C37.9993 17.6267 37.8747 17.1647 37.6253 16.842C37.376 16.5047 36.9727 16.1673 36.4153 15.83L35.5793 15.346C34.978 14.9793 34.5233 14.6933 34.2153 14.488C33.922 14.268 33.6873 14.026 33.5113 13.762C33.3353 13.4833 33.2473 13.1607 33.2473 12.794C33.2473 12.2073 33.4527 11.738 33.8633 11.386C34.274 11.034 34.8093 10.858 35.4693 10.858C36.276 10.858 36.9507 11.0413 37.4933 11.408V12.376C37.0387 11.7747 36.386 11.474 35.5353 11.474C35.066 11.474 34.6847 11.5913 34.3913 11.826C34.098 12.0607 33.9513 12.3613 33.9513 12.728C33.9513 13.0507 34.0393 13.3367 34.2153 13.586C34.3913 13.8207 34.6333 14.0407 34.9413 14.246C35.264 14.4513 35.792 14.7593 36.5253 15.17C37.2733 15.5953 37.8233 16.0353 38.1753 16.49C38.5273 16.93 38.7033 17.5093 38.7033 18.228C38.7033 19.1373 38.4027 19.8707 37.8013 20.428C37.2147 20.9707 36.496 21.242 35.6453 21.242ZM45.7138 20.648C46.4764 20.648 47.2024 20.45 47.8918 20.054C48.5811 19.658 49.1531 19.1153 49.6078 18.426V19.548C49.0651 20.1493 48.4711 20.5893 47.8258 20.868C47.1804 21.132 46.4471 21.264 45.6258 21.264C44.7164 21.264 43.8584 21.022 43.0518 20.538C42.2598 20.054 41.6218 19.4087 41.1378 18.602C40.6684 17.7953 40.4338 16.9373 40.4338 16.028C40.4338 15.0453 40.6684 14.1653 41.1378 13.388C41.6071 12.596 42.2451 11.98 43.0518 11.54C43.8731 11.1 44.7824 10.88 45.7798 10.88C47.3051 10.88 48.6031 11.4813 49.6738 12.684L42.7658 19.504C43.2498 19.9 43.7191 20.1933 44.1738 20.384C44.6284 20.56 45.1418 20.648 45.7138 20.648ZM41.1378 15.962C41.1378 17.1793 41.5411 18.2207 42.3478 19.086L48.7938 12.684C48.3098 12.2587 47.8404 11.958 47.3858 11.782C46.9311 11.5913 46.3884 11.496 45.7578 11.496C44.8631 11.496 44.0638 11.694 43.3598 12.09C42.6704 12.4713 42.1278 12.9993 41.7318 13.674C41.3358 14.3487 41.1378 15.1113 41.1378 15.962ZM54.2723 21.242C53.5683 21.242 52.9449 21.1247 52.4023 20.89C51.8596 20.6407 51.4709 20.3253 51.2363 19.944V18.778C51.5149 19.4087 51.8963 19.878 52.3803 20.186C52.8643 20.4793 53.4803 20.626 54.2283 20.626C54.9469 20.626 55.5263 20.406 55.9663 19.966C56.4063 19.5113 56.6263 18.932 56.6263 18.228C56.6263 17.6267 56.5016 17.1647 56.2523 16.842C56.0029 16.5047 55.5996 16.1673 55.0423 15.83L54.2063 15.346C53.6049 14.9793 53.1503 14.6933 52.8423 14.488C52.5489 14.268 52.3143 14.026 52.1383 13.762C51.9623 13.4833 51.8743 13.1607 51.8743 12.794C51.8743 12.2073 52.0796 11.738 52.4903 11.386C52.9009 11.034 53.4363 10.858 54.0963 10.858C54.9029 10.858 55.5776 11.0413 56.1203 11.408V12.376C55.6656 11.7747 55.0129 11.474 54.1623 11.474C53.6929 11.474 53.3116 11.5913 53.0183 11.826C52.7249 12.0607 52.5783 12.3613 52.5783 12.728C52.5783 13.0507 52.6663 13.3367 52.8423 13.586C53.0183 13.8207 53.2603 14.0407 53.5683 14.246C53.8909 14.4513 54.4189 14.7593 55.1523 15.17C55.9003 15.5953 56.4503 16.0353 56.8023 16.49C57.1543 16.93 57.3303 17.5093 57.3303 18.228C57.3303 19.1373 57.0296 19.8707 56.4283 20.428C55.8416 20.9707 55.1229 21.242 54.2723 21.242ZM61.9207 21.242C61.2167 21.242 60.5934 21.1247 60.0507 20.89C59.5081 20.6407 59.1194 20.3253 58.8847 19.944V18.778C59.1634 19.4087 59.5447 19.878 60.0287 20.186C60.5127 20.4793 61.1287 20.626 61.8767 20.626C62.5954 20.626 63.1747 20.406 63.6147 19.966C64.0547 19.5113 64.2747 18.932 64.2747 18.228C64.2747 17.6267 64.1501 17.1647 63.9007 16.842C63.6514 16.5047 63.2481 16.1673 62.6907 15.83L61.8547 15.346C61.2534 14.9793 60.7987 14.6933 60.4907 14.488C60.1974 14.268 59.9627 14.026 59.7867 13.762C59.6107 13.4833 59.5227 13.1607 59.5227 12.794C59.5227 12.2073 59.7281 11.738 60.1387 11.386C60.5494 11.034 61.0847 10.858 61.7447 10.858C62.5514 10.858 63.2261 11.0413 63.7687 11.408V12.376C63.3141 11.7747 62.6614 11.474 61.8107 11.474C61.3414 11.474 60.9601 11.5913 60.6667 11.826C60.3734 12.0607 60.2267 12.3613 60.2267 12.728C60.2267 13.0507 60.3147 13.3367 60.4907 13.586C60.6667 13.8207 60.9087 14.0407 61.2167 14.246C61.5394 14.4513 62.0674 14.7593 62.8007 15.17C63.5487 15.5953 64.0987 16.0353 64.4507 16.49C64.8027 16.93 64.9787 17.5093 64.9787 18.228C64.9787 19.1373 64.6781 19.8707 64.0767 20.428C63.4901 20.9707 62.7714 21.242 61.9207 21.242ZM71.9892 20.648C72.7518 20.648 73.4778 20.45 74.1672 20.054C74.8565 19.658 75.4285 19.1153 75.8832 18.426V19.548C75.3405 20.1493 74.7465 20.5893 74.1012 20.868C73.4558 21.132 72.7225 21.264 71.9012 21.264C70.9918 21.264 70.1338 21.022 69.3272 20.538C68.5352 20.054 67.8972 19.4087 67.4132 18.602C66.9438 17.7953 66.7092 16.9373 66.7092 16.028C66.7092 15.0453 66.9438 14.1653 67.4132 13.388C67.8825 12.596 68.5205 11.98 69.3272 11.54C70.1485 11.1 71.0578 10.88 72.0552 10.88C73.5805 10.88 74.8785 11.4813 75.9492 12.684L69.0412 19.504C69.5252 19.9 69.9945 20.1933 70.4492 20.384C70.9038 20.56 71.4172 20.648 71.9892 20.648ZM67.4132 15.962C67.4132 17.1793 67.8165 18.2207 68.6232 19.086L75.0692 12.684C74.5852 12.2587 74.1158 11.958 73.6612 11.782C73.2065 11.5913 72.6638 11.496 72.0332 11.496C71.1385 11.496 70.3392 11.694 69.6352 12.09C68.9458 12.4713 68.4032 12.9993 68.0072 13.674C67.6112 14.3487 67.4132 15.1113 67.4132 15.962ZM82.8137 21.242C81.8603 21.242 80.9803 21.0073 80.1737 20.538C79.3817 20.0687 78.751 19.438 78.2817 18.646C77.8123 17.854 77.5777 16.9887 77.5777 16.05C77.5777 15.1113 77.8123 14.246 78.2817 13.454C78.751 12.662 79.3817 12.0313 80.1737 11.562C80.9803 11.0927 81.8603 10.858 82.8137 10.858C83.7377 10.858 84.6177 11.1073 85.4537 11.606C86.2897 12.09 86.9057 12.728 87.3017 13.52V4.5H88.0057V21H87.3017V18.602C86.8617 19.394 86.2237 20.032 85.3877 20.516C84.5663 21 83.7083 21.242 82.8137 21.242ZM82.7917 20.626C83.5983 20.626 84.3463 20.4207 85.0357 20.01C85.7397 19.5847 86.297 19.0273 86.7077 18.338C87.133 17.634 87.3457 16.8787 87.3457 16.072C87.3457 15.2653 87.133 14.51 86.7077 13.806C86.297 13.102 85.7397 12.5373 85.0357 12.112C84.3463 11.6867 83.5983 11.474 82.7917 11.474C81.985 11.474 81.237 11.6867 80.5477 12.112C79.8583 12.5227 79.3083 13.08 78.8977 13.784C78.487 14.488 78.2817 15.2433 78.2817 16.05C78.2817 16.8713 78.4797 17.634 78.8757 18.338C79.2863 19.0273 79.8363 19.5847 80.5257 20.01C81.2297 20.4207 81.985 20.626 82.7917 20.626ZM98.4985 5.138H94.6925V4.5H102.986V5.138H99.2245V21H98.4985V5.138ZM104.833 4.5H105.537V13.146C105.845 12.486 106.366 11.9433 107.099 11.518C107.847 11.078 108.603 10.858 109.365 10.858C110.759 10.858 111.829 11.2393 112.577 12.002C113.34 12.7647 113.721 13.8427 113.721 15.236V21H113.017V15.236C113.017 14.0333 112.695 13.1093 112.049 12.464C111.419 11.804 110.524 11.474 109.365 11.474C108.661 11.474 108.016 11.6427 107.429 11.98C106.843 12.3027 106.381 12.7573 106.043 13.344C105.706 13.916 105.537 14.5467 105.537 15.236V21H104.833V4.5ZM121.207 21.352C120.21 21.352 119.308 21.11 118.501 20.626C117.695 20.1273 117.064 19.4747 116.609 18.668C116.155 17.8467 115.927 16.9593 115.927 16.006C115.927 15.0673 116.155 14.1947 116.609 13.388C117.079 12.5813 117.709 11.9433 118.501 11.474C119.308 10.99 120.203 10.748 121.185 10.748C122.153 10.748 123.033 10.99 123.825 11.474C124.632 11.9433 125.263 12.5813 125.717 13.388C126.172 14.1947 126.399 15.0673 126.399 16.006C126.399 16.9887 126.179 17.8907 125.739 18.712C125.299 19.5187 124.683 20.164 123.891 20.648C123.114 21.1173 122.219 21.352 121.207 21.352ZM121.207 20.736C122.043 20.736 122.806 20.5233 123.495 20.098C124.185 19.6727 124.72 19.108 125.101 18.404C125.497 17.6853 125.695 16.9007 125.695 16.05C125.695 15.214 125.497 14.4367 125.101 13.718C124.705 12.9993 124.163 12.4273 123.473 12.002C122.784 11.5767 122.021 11.364 121.185 11.364C120.349 11.364 119.579 11.584 118.875 12.024C118.186 12.4493 117.636 13.0213 117.225 13.74C116.829 14.4587 116.631 15.236 116.631 16.072C116.631 16.908 116.829 17.6853 117.225 18.404C117.636 19.108 118.186 19.6727 118.875 20.098C119.579 20.5233 120.357 20.736 121.207 20.736ZM132.951 21.242C131.558 21.242 130.48 20.8607 129.717 20.098C128.969 19.3353 128.595 18.2573 128.595 16.864V11.1H129.299V16.864C129.299 18.0667 129.614 18.998 130.245 19.658C130.89 20.3033 131.792 20.626 132.951 20.626C133.655 20.626 134.3 20.472 134.887 20.164C135.474 19.8413 135.936 19.394 136.273 18.822C136.61 18.25 136.779 17.5973 136.779 16.864V11.1H137.483V21H136.779V19.152C136.442 19.768 135.936 20.274 135.261 20.67C134.586 21.0513 133.816 21.242 132.951 21.242ZM145.035 25.576C144.199 25.576 143.385 25.3853 142.593 25.004C141.801 24.6227 141.185 24.124 140.745 23.508V22.496C141.126 23.2 141.72 23.7867 142.527 24.256C143.348 24.7253 144.184 24.96 145.035 24.96C146.443 24.96 147.528 24.542 148.291 23.706C149.054 22.8847 149.435 21.6747 149.435 20.076V18.602C149.039 19.394 148.416 20.0393 147.565 20.538C146.729 21.022 145.849 21.264 144.925 21.264C143.986 21.264 143.114 21.0293 142.307 20.56C141.5 20.0907 140.862 19.46 140.393 18.668C139.924 17.8613 139.689 16.996 139.689 16.072C139.689 15.148 139.924 14.29 140.393 13.498C140.862 12.6913 141.5 12.0533 142.307 11.584C143.114 11.1147 143.986 10.88 144.925 10.88C145.893 10.88 146.788 11.122 147.609 11.606C148.43 12.09 149.039 12.7427 149.435 13.564V11.1H150.139V20.076C150.139 21.88 149.699 23.244 148.819 24.168C147.954 25.1067 146.692 25.576 145.035 25.576ZM144.969 20.648C145.776 20.648 146.524 20.4427 147.213 20.032C147.902 19.6067 148.445 19.0493 148.841 18.36C149.252 17.656 149.457 16.8933 149.457 16.072C149.457 15.2507 149.252 14.4953 148.841 13.806C148.445 13.102 147.902 12.5447 147.213 12.134C146.524 11.7087 145.776 11.496 144.969 11.496C144.148 11.496 143.385 11.7087 142.681 12.134C141.992 12.5447 141.434 13.102 141.009 13.806C140.598 14.4953 140.393 15.2507 140.393 16.072C140.393 16.8933 140.598 17.656 141.009 18.36C141.434 19.0493 141.992 19.6067 142.681 20.032C143.385 20.4427 144.148 20.648 144.969 20.648ZM152.915 4.5H153.619V13.146C153.927 12.486 154.448 11.9433 155.181 11.518C155.929 11.078 156.685 10.858 157.447 10.858C158.841 10.858 159.911 11.2393 160.659 12.002C161.422 12.7647 161.803 13.8427 161.803 15.236V21H161.099V15.236C161.099 14.0333 160.777 13.1093 160.131 12.464C159.501 11.804 158.606 11.474 157.447 11.474C156.743 11.474 156.098 11.6427 155.511 11.98C154.925 12.3027 154.463 12.7573 154.125 13.344C153.788 13.916 153.619 14.5467 153.619 15.236V21H152.915V4.5ZM168.123 21.132C167.038 21.132 166.136 20.802 165.417 20.142C164.713 19.482 164.361 18.5727 164.361 17.414V7.118H165.065V11.1H168.101V11.716H165.065V17.414C165.065 18.382 165.351 19.1447 165.923 19.702C166.51 20.2447 167.243 20.516 168.123 20.516V21.132ZM172.372 21.242C171.668 21.242 171.045 21.1247 170.502 20.89C169.959 20.6407 169.571 20.3253 169.336 19.944V18.778C169.615 19.4087 169.996 19.878 170.48 20.186C170.964 20.4793 171.58 20.626 172.328 20.626C173.047 20.626 173.626 20.406 174.066 19.966C174.506 19.5113 174.726 18.932 174.726 18.228C174.726 17.6267 174.601 17.1647 174.352 16.842C174.103 16.5047 173.699 16.1673 173.142 15.83L172.306 15.346C171.705 14.9793 171.25 14.6933 170.942 14.488C170.649 14.268 170.414 14.026 170.238 13.762C170.062 13.4833 169.974 13.1607 169.974 12.794C169.974 12.2073 170.179 11.738 170.59 11.386C171.001 11.034 171.536 10.858 172.196 10.858C173.003 10.858 173.677 11.0413 174.22 11.408V12.376C173.765 11.7747 173.113 11.474 172.262 11.474C171.793 11.474 171.411 11.5913 171.118 11.826C170.825 12.0607 170.678 12.3613 170.678 12.728C170.678 13.0507 170.766 13.3367 170.942 13.586C171.118 13.8207 171.36 14.0407 171.668 14.246C171.991 14.4513 172.519 14.7593 173.252 15.17C174 15.5953 174.55 16.0353 174.902 16.49C175.254 16.93 175.43 17.5093 175.43 18.228C175.43 19.1373 175.129 19.8707 174.528 20.428C173.941 20.9707 173.223 21.242 172.372 21.242Z" fill="black"/>
</svg>
