<svg width="216" height="35" viewBox="0 0 216 35" fill="none" xmlns="http://www.w3.org/2000/svg">
<path d="M178.759 8.25H178.259V8.75V21V21.5H178.759H208.552H209.052V21V8.75V8.25H208.552H178.759Z" fill="white" stroke="#DDDDDD"/>
<path d="M180.621 19.25V10.5H183.424C184.355 10.5 185.054 10.6963 185.521 11.0889C185.993 11.4816 186.228 12.0625 186.228 12.8317C186.228 13.2404 186.114 13.603 185.886 13.9195C185.659 14.232 185.349 14.4744 184.956 14.6466C185.419 14.7788 185.784 15.0312 186.051 15.4038C186.322 15.7724 186.458 16.2131 186.458 16.726C186.458 17.5112 186.208 18.1282 185.71 18.5769C185.211 19.0256 184.506 19.25 183.595 19.25H180.621ZM181.752 15.1575V18.3065H183.619C184.145 18.3065 184.559 18.1683 184.862 17.8918C185.168 17.6114 185.321 17.2268 185.321 16.738C185.321 15.6843 184.76 15.1575 183.636 15.1575H181.752ZM181.752 14.232H183.46C183.955 14.232 184.349 14.1058 184.644 13.8534C184.942 13.601 185.091 13.2584 185.091 12.8257C185.091 12.345 184.954 11.9964 184.679 11.78C184.404 11.5597 183.986 11.4495 183.424 11.4495H181.752V14.232Z" fill="#B3B3B3"/>
<path d="M192.984 15.2055H189.267V18.3065H193.585V19.25H188.137V10.5H193.526V11.4495H189.267V14.262H192.984V15.2055Z" fill="#B3B3B3"/>
<path d="M201.036 11.4495H198.279V19.25H197.154V11.4495H194.404V10.5H201.036V11.4495Z" fill="#B3B3B3"/>
<path d="M206.573 16.9663H202.98L202.173 19.25H201.006L204.281 10.5H205.271L208.552 19.25H207.391L206.573 16.9663ZM203.321 16.0168H206.237L204.776 11.9243L203.321 16.0168Z" fill="#B3B3B3"/>
<g filter="url(#filter0_i)">
<path d="M9.614 21.44C8.074 21.44 6.644 21.0367 5.324 20.23C4.004 19.4233 2.95533 18.3527 2.178 17.018C1.41533 15.6687 1.034 14.224 1.034 12.684C1.034 11.1587 1.42267 9.736 2.2 8.416C2.97733 7.08133 4.026 6.02533 5.346 5.248C6.666 4.456 8.096 4.06 9.636 4.06C11.1907 4.06 12.6207 4.44867 13.926 5.226C15.2313 6.00333 16.2653 7.05933 17.028 8.394C17.8053 9.714 18.194 11.144 18.194 12.684C18.194 14.268 17.8053 15.7347 17.028 17.084C16.2653 18.4187 15.224 19.482 13.904 20.274C12.5987 21.0513 11.1687 21.44 9.614 21.44ZM9.614 20.802C11.022 20.802 12.3273 20.4427 13.53 19.724C14.7327 18.9907 15.686 18.008 16.39 16.776C17.1087 15.5293 17.468 14.18 17.468 12.728C17.468 11.2907 17.116 9.956 16.412 8.724C15.708 7.492 14.7547 6.51667 13.552 5.798C12.3493 5.06467 11.044 4.698 9.636 4.698C8.21333 4.698 6.90067 5.06467 5.698 5.798C4.49533 6.51667 3.53467 7.492 2.816 8.724C2.112 9.956 1.76 11.2907 1.76 12.728C1.76 14.18 2.112 15.5293 2.816 16.776C3.53467 18.008 4.49533 18.9907 5.698 19.724C6.90067 20.4427 8.206 20.802 9.614 20.802ZM25.8065 21.242C24.9118 21.242 24.0465 21 23.2105 20.516C22.3892 20.032 21.7585 19.394 21.3185 18.602V21H20.6145V4.5H21.3185V13.608C21.7145 12.772 22.3305 12.1047 23.1665 11.606C24.0025 11.1073 24.8825 10.858 25.8065 10.858C26.7598 10.858 27.6325 11.0927 28.4245 11.562C29.2312 12.0313 29.8692 12.662 30.3385 13.454C30.8078 14.246 31.0425 15.1113 31.0425 16.05C31.0425 16.9887 30.8078 17.854 30.3385 18.646C29.8692 19.438 29.2312 20.0687 28.4245 20.538C27.6325 21.0073 26.7598 21.242 25.8065 21.242ZM25.8505 20.626C26.6572 20.626 27.4052 20.4207 28.0945 20.01C28.7838 19.5847 29.3265 19.0273 29.7225 18.338C30.1332 17.634 30.3385 16.8713 30.3385 16.05C30.3385 15.2433 30.1332 14.488 29.7225 13.784C29.3118 13.08 28.7618 12.5227 28.0725 12.112C27.3832 11.6867 26.6352 11.474 25.8285 11.474C25.0218 11.474 24.2665 11.6867 23.5625 12.112C22.8732 12.5373 22.3158 13.102 21.8905 13.806C21.4798 14.51 21.2745 15.2653 21.2745 16.072C21.2745 16.8787 21.4798 17.634 21.8905 18.338C22.3158 19.0273 22.8805 19.5847 23.5845 20.01C24.2885 20.4207 25.0438 20.626 25.8505 20.626ZM35.6453 21.242C34.9413 21.242 34.318 21.1247 33.7753 20.89C33.2327 20.6407 32.844 20.3253 32.6093 19.944V18.778C32.888 19.4087 33.2693 19.878 33.7533 20.186C34.2373 20.4793 34.8533 20.626 35.6013 20.626C36.32 20.626 36.8993 20.406 37.3393 19.966C37.7793 19.5113 37.9993 18.932 37.9993 18.228C37.9993 17.6267 37.8747 17.1647 37.6253 16.842C37.376 16.5047 36.9727 16.1673 36.4153 15.83L35.5793 15.346C34.978 14.9793 34.5233 14.6933 34.2153 14.488C33.922 14.268 33.6873 14.026 33.5113 13.762C33.3353 13.4833 33.2473 13.1607 33.2473 12.794C33.2473 12.2073 33.4527 11.738 33.8633 11.386C34.274 11.034 34.8093 10.858 35.4693 10.858C36.276 10.858 36.9507 11.0413 37.4933 11.408V12.376C37.0387 11.7747 36.386 11.474 35.5353 11.474C35.066 11.474 34.6847 11.5913 34.3913 11.826C34.098 12.0607 33.9513 12.3613 33.9513 12.728C33.9513 13.0507 34.0393 13.3367 34.2153 13.586C34.3913 13.8207 34.6333 14.0407 34.9413 14.246C35.264 14.4513 35.792 14.7593 36.5253 15.17C37.2733 15.5953 37.8233 16.0353 38.1753 16.49C38.5273 16.93 38.7033 17.5093 38.7033 18.228C38.7033 19.1373 38.4027 19.8707 37.8013 20.428C37.2147 20.9707 36.496 21.242 35.6453 21.242ZM45.7138 20.648C46.4764 20.648 47.2024 20.45 47.8918 20.054C48.5811 19.658 49.1531 19.1153 49.6078 18.426V19.548C49.0651 20.1493 48.4711 20.5893 47.8258 20.868C47.1804 21.132 46.4471 21.264 45.6258 21.264C44.7164 21.264 43.8584 21.022 43.0518 20.538C42.2598 20.054 41.6218 19.4087 41.1378 18.602C40.6684 17.7953 40.4338 16.9373 40.4338 16.028C40.4338 15.0453 40.6684 14.1653 41.1378 13.388C41.6071 12.596 42.2451 11.98 43.0518 11.54C43.8731 11.1 44.7824 10.88 45.7798 10.88C47.3051 10.88 48.6031 11.4813 49.6738 12.684L42.7658 19.504C43.2498 19.9 43.7191 20.1933 44.1738 20.384C44.6284 20.56 45.1418 20.648 45.7138 20.648ZM41.1378 15.962C41.1378 17.1793 41.5411 18.2207 42.3478 19.086L48.7938 12.684C48.3098 12.2587 47.8404 11.958 47.3858 11.782C46.9311 11.5913 46.3884 11.496 45.7578 11.496C44.8631 11.496 44.0638 11.694 43.3598 12.09C42.6704 12.4713 42.1278 12.9993 41.7318 13.674C41.3358 14.3487 41.1378 15.1113 41.1378 15.962ZM54.2723 21.242C53.5683 21.242 52.9449 21.1247 52.4023 20.89C51.8596 20.6407 51.4709 20.3253 51.2363 19.944V18.778C51.5149 19.4087 51.8963 19.878 52.3803 20.186C52.8643 20.4793 53.4803 20.626 54.2283 20.626C54.9469 20.626 55.5263 20.406 55.9663 19.966C56.4063 19.5113 56.6263 18.932 56.6263 18.228C56.6263 17.6267 56.5016 17.1647 56.2523 16.842C56.0029 16.5047 55.5996 16.1673 55.0423 15.83L54.2063 15.346C53.6049 14.9793 53.1503 14.6933 52.8423 14.488C52.5489 14.268 52.3143 14.026 52.1383 13.762C51.9623 13.4833 51.8743 13.1607 51.8743 12.794C51.8743 12.2073 52.0796 11.738 52.4903 11.386C52.9009 11.034 53.4363 10.858 54.0963 10.858C54.9029 10.858 55.5776 11.0413 56.1203 11.408V12.376C55.6656 11.7747 55.0129 11.474 54.1623 11.474C53.6929 11.474 53.3116 11.5913 53.0183 11.826C52.7249 12.0607 52.5783 12.3613 52.5783 12.728C52.5783 13.0507 52.6663 13.3367 52.8423 13.586C53.0183 13.8207 53.2603 14.0407 53.5683 14.246C53.8909 14.4513 54.4189 14.7593 55.1523 15.17C55.9003 15.5953 56.4503 16.0353 56.8023 16.49C57.1543 16.93 57.3303 17.5093 57.3303 18.228C57.3303 19.1373 57.0296 19.8707 56.4283 20.428C55.8416 20.9707 55.1229 21.242 54.2723 21.242ZM61.9207 21.242C61.2167 21.242 60.5934 21.1247 60.0507 20.89C59.5081 20.6407 59.1194 20.3253 58.8847 19.944V18.778C59.1634 19.4087 59.5447 19.878 60.0287 20.186C60.5127 20.4793 61.1287 20.626 61.8767 20.626C62.5954 20.626 63.1747 20.406 63.6147 19.966C64.0547 19.5113 64.2747 18.932 64.2747 18.228C64.2747 17.6267 64.1501 17.1647 63.9007 16.842C63.6514 16.5047 63.2481 16.1673 62.6907 15.83L61.8547 15.346C61.2534 14.9793 60.7987 14.6933 60.4907 14.488C60.1974 14.268 59.9627 14.026 59.7867 13.762C59.6107 13.4833 59.5227 13.1607 59.5227 12.794C59.5227 12.2073 59.7281 11.738 60.1387 11.386C60.5494 11.034 61.0847 10.858 61.7447 10.858C62.5514 10.858 63.2261 11.0413 63.7687 11.408V12.376C63.3141 11.7747 62.6614 11.474 61.8107 11.474C61.3414 11.474 60.9601 11.5913 60.6667 11.826C60.3734 12.0607 60.2267 12.3613 60.2267 12.728C60.2267 13.0507 60.3147 13.3367 60.4907 13.586C60.6667 13.8207 60.9087 14.0407 61.2167 14.246C61.5394 14.4513 62.0674 14.7593 62.8007 15.17C63.5487 15.5953 64.0987 16.0353 64.4507 16.49C64.8027 16.93 64.9787 17.5093 64.9787 18.228C64.9787 19.1373 64.6781 19.8707 64.0767 20.428C63.4901 20.9707 62.7714 21.242 61.9207 21.242ZM71.9892 20.648C72.7518 20.648 73.4778 20.45 74.1672 20.054C74.8565 19.658 75.4285 19.1153 75.8832 18.426V19.548C75.3405 20.1493 74.7465 20.5893 74.1012 20.868C73.4558 21.132 72.7225 21.264 71.9012 21.264C70.9918 21.264 70.1338 21.022 69.3272 20.538C68.5352 20.054 67.8972 19.4087 67.4132 18.602C66.9438 17.7953 66.7092 16.9373 66.7092 16.028C66.7092 15.0453 66.9438 14.1653 67.4132 13.388C67.8825 12.596 68.5205 11.98 69.3272 11.54C70.1485 11.1 71.0578 10.88 72.0552 10.88C73.5805 10.88 74.8785 11.4813 75.9492 12.684L69.0412 19.504C69.5252 19.9 69.9945 20.1933 70.4492 20.384C70.9038 20.56 71.4172 20.648 71.9892 20.648ZM67.4132 15.962C67.4132 17.1793 67.8165 18.2207 68.6232 19.086L75.0692 12.684C74.5852 12.2587 74.1158 11.958 73.6612 11.782C73.2065 11.5913 72.6638 11.496 72.0332 11.496C71.1385 11.496 70.3392 11.694 69.6352 12.09C68.9458 12.4713 68.4032 12.9993 68.0072 13.674C67.6112 14.3487 67.4132 15.1113 67.4132 15.962ZM82.8137 21.242C81.8603 21.242 80.9803 21.0073 80.1737 20.538C79.3817 20.0687 78.751 19.438 78.2817 18.646C77.8123 17.854 77.5777 16.9887 77.5777 16.05C77.5777 15.1113 77.8123 14.246 78.2817 13.454C78.751 12.662 79.3817 12.0313 80.1737 11.562C80.9803 11.0927 81.8603 10.858 82.8137 10.858C83.7377 10.858 84.6177 11.1073 85.4537 11.606C86.2897 12.09 86.9057 12.728 87.3017 13.52V4.5H88.0057V21H87.3017V18.602C86.8617 19.394 86.2237 20.032 85.3877 20.516C84.5663 21 83.7083 21.242 82.8137 21.242ZM82.7917 20.626C83.5983 20.626 84.3463 20.4207 85.0357 20.01C85.7397 19.5847 86.297 19.0273 86.7077 18.338C87.133 17.634 87.3457 16.8787 87.3457 16.072C87.3457 15.2653 87.133 14.51 86.7077 13.806C86.297 13.102 85.7397 12.5373 85.0357 12.112C84.3463 11.6867 83.5983 11.474 82.7917 11.474C81.985 11.474 81.237 11.6867 80.5477 12.112C79.8583 12.5227 79.3083 13.08 78.8977 13.784C78.487 14.488 78.2817 15.2433 78.2817 16.05C78.2817 16.8713 78.4797 17.634 78.8757 18.338C79.2863 19.0273 79.8363 19.5847 80.5257 20.01C81.2297 20.4207 81.985 20.626 82.7917 20.626ZM98.4985 5.138H94.6925V4.5H102.986V5.138H99.2245V21H98.4985V5.138ZM104.833 4.5H105.537V13.146C105.845 12.486 106.366 11.9433 107.099 11.518C107.847 11.078 108.603 10.858 109.365 10.858C110.759 10.858 111.829 11.2393 112.577 12.002C113.34 12.7647 113.721 13.8427 113.721 15.236V21H113.017V15.236C113.017 14.0333 112.695 13.1093 112.049 12.464C111.419 11.804 110.524 11.474 109.365 11.474C108.661 11.474 108.016 11.6427 107.429 11.98C106.843 12.3027 106.381 12.7573 106.043 13.344C105.706 13.916 105.537 14.5467 105.537 15.236V21H104.833V4.5ZM121.207 21.352C120.21 21.352 119.308 21.11 118.501 20.626C117.695 20.1273 117.064 19.4747 116.609 18.668C116.155 17.8467 115.927 16.9593 115.927 16.006C115.927 15.0673 116.155 14.1947 116.609 13.388C117.079 12.5813 117.709 11.9433 118.501 11.474C119.308 10.99 120.203 10.748 121.185 10.748C122.153 10.748 123.033 10.99 123.825 11.474C124.632 11.9433 125.263 12.5813 125.717 13.388C126.172 14.1947 126.399 15.0673 126.399 16.006C126.399 16.9887 126.179 17.8907 125.739 18.712C125.299 19.5187 124.683 20.164 123.891 20.648C123.114 21.1173 122.219 21.352 121.207 21.352ZM121.207 20.736C122.043 20.736 122.806 20.5233 123.495 20.098C124.185 19.6727 124.72 19.108 125.101 18.404C125.497 17.6853 125.695 16.9007 125.695 16.05C125.695 15.214 125.497 14.4367 125.101 13.718C124.705 12.9993 124.163 12.4273 123.473 12.002C122.784 11.5767 122.021 11.364 121.185 11.364C120.349 11.364 119.579 11.584 118.875 12.024C118.186 12.4493 117.636 13.0213 117.225 13.74C116.829 14.4587 116.631 15.236 116.631 16.072C116.631 16.908 116.829 17.6853 117.225 18.404C117.636 19.108 118.186 19.6727 118.875 20.098C119.579 20.5233 120.357 20.736 121.207 20.736ZM132.951 21.242C131.558 21.242 130.48 20.8607 129.717 20.098C128.969 19.3353 128.595 18.2573 128.595 16.864V11.1H129.299V16.864C129.299 18.0667 129.614 18.998 130.245 19.658C130.89 20.3033 131.792 20.626 132.951 20.626C133.655 20.626 134.3 20.472 134.887 20.164C135.474 19.8413 135.936 19.394 136.273 18.822C136.61 18.25 136.779 17.5973 136.779 16.864V11.1H137.483V21H136.779V19.152C136.442 19.768 135.936 20.274 135.261 20.67C134.586 21.0513 133.816 21.242 132.951 21.242ZM145.035 25.576C144.199 25.576 143.385 25.3853 142.593 25.004C141.801 24.6227 141.185 24.124 140.745 23.508V22.496C141.126 23.2 141.72 23.7867 142.527 24.256C143.348 24.7253 144.184 24.96 145.035 24.96C146.443 24.96 147.528 24.542 148.291 23.706C149.054 22.8847 149.435 21.6747 149.435 20.076V18.602C149.039 19.394 148.416 20.0393 147.565 20.538C146.729 21.022 145.849 21.264 144.925 21.264C143.986 21.264 143.114 21.0293 142.307 20.56C141.5 20.0907 140.862 19.46 140.393 18.668C139.924 17.8613 139.689 16.996 139.689 16.072C139.689 15.148 139.924 14.29 140.393 13.498C140.862 12.6913 141.5 12.0533 142.307 11.584C143.114 11.1147 143.986 10.88 144.925 10.88C145.893 10.88 146.788 11.122 147.609 11.606C148.43 12.09 149.039 12.7427 149.435 13.564V11.1H150.139V20.076C150.139 21.88 149.699 23.244 148.819 24.168C147.954 25.1067 146.692 25.576 145.035 25.576ZM144.969 20.648C145.776 20.648 146.524 20.4427 147.213 20.032C147.902 19.6067 148.445 19.0493 148.841 18.36C149.252 17.656 149.457 16.8933 149.457 16.072C149.457 15.2507 149.252 14.4953 148.841 13.806C148.445 13.102 147.902 12.5447 147.213 12.134C146.524 11.7087 145.776 11.496 144.969 11.496C144.148 11.496 143.385 11.7087 142.681 12.134C141.992 12.5447 141.434 13.102 141.009 13.806C140.598 14.4953 140.393 15.2507 140.393 16.072C140.393 16.8933 140.598 17.656 141.009 18.36C141.434 19.0493 141.992 19.6067 142.681 20.032C143.385 20.4427 144.148 20.648 144.969 20.648ZM152.915 4.5H153.619V13.146C153.927 12.486 154.448 11.9433 155.181 11.518C155.929 11.078 156.685 10.858 157.447 10.858C158.841 10.858 159.911 11.2393 160.659 12.002C161.422 12.7647 161.803 13.8427 161.803 15.236V21H161.099V15.236C161.099 14.0333 160.777 13.1093 160.131 12.464C159.501 11.804 158.606 11.474 157.447 11.474C156.743 11.474 156.098 11.6427 155.511 11.98C154.925 12.3027 154.463 12.7573 154.125 13.344C153.788 13.916 153.619 14.5467 153.619 15.236V21H152.915V4.5ZM168.123 21.132C167.038 21.132 166.136 20.802 165.417 20.142C164.713 19.482 164.361 18.5727 164.361 17.414V7.118H165.065V11.1H168.101V11.716H165.065V17.414C165.065 18.382 165.351 19.1447 165.923 19.702C166.51 20.2447 167.243 20.516 168.123 20.516V21.132ZM172.372 21.242C171.668 21.242 171.045 21.1247 170.502 20.89C169.959 20.6407 169.571 20.3253 169.336 19.944V18.778C169.615 19.4087 169.996 19.878 170.48 20.186C170.964 20.4793 171.58 20.626 172.328 20.626C173.047 20.626 173.626 20.406 174.066 19.966C174.506 19.5113 174.726 18.932 174.726 18.228C174.726 17.6267 174.601 17.1647 174.352 16.842C174.103 16.5047 173.699 16.1673 173.142 15.83L172.306 15.346C171.705 14.9793 171.25 14.6933 170.942 14.488C170.649 14.268 170.414 14.026 170.238 13.762C170.062 13.4833 169.974 13.1607 169.974 12.794C169.974 12.2073 170.179 11.738 170.59 11.386C171.001 11.034 171.536 10.858 172.196 10.858C173.003 10.858 173.677 11.0413 174.22 11.408V12.376C173.765 11.7747 173.113 11.474 172.262 11.474C171.793 11.474 171.411 11.5913 171.118 11.826C170.825 12.0607 170.678 12.3613 170.678 12.728C170.678 13.0507 170.766 13.3367 170.942 13.586C171.118 13.8207 171.36 14.0407 171.668 14.246C171.991 14.4513 172.519 14.7593 173.252 15.17C174 15.5953 174.55 16.0353 174.902 16.49C175.254 16.93 175.43 17.5093 175.43 18.228C175.43 19.1373 175.129 19.8707 174.528 20.428C173.941 20.9707 173.223 21.242 172.372 21.242Z" fill="#F38704"/>
</g>
<path d="M5.324 20.23L5.06328 20.6566L5.324 20.23ZM2.178 17.018L1.74268 17.264L1.74594 17.2696L2.178 17.018ZM2.2 8.416L2.63085 8.66972L2.63206 8.66764L2.2 8.416ZM5.346 5.248L5.59973 5.67886L5.60325 5.67675L5.346 5.248ZM13.926 5.226L13.6702 5.6556L13.6702 5.6556L13.926 5.226ZM17.028 8.394L16.5938 8.64209L16.5972 8.64772L17.028 8.394ZM17.028 17.084L16.5947 16.8344L16.5939 16.8359L17.028 17.084ZM13.904 20.274L14.1598 20.7036L14.1612 20.7027L13.904 20.274ZM13.53 19.724L13.7865 20.1532L13.7903 20.1509L13.53 19.724ZM16.39 16.776L15.9568 16.5263L15.9559 16.5279L16.39 16.776ZM16.412 8.724L16.8461 8.47593L16.8461 8.47593L16.412 8.724ZM13.552 5.798L13.2917 6.22491L13.2955 6.22721L13.552 5.798ZM5.698 5.798L5.95449 6.22722L5.9583 6.2249L5.698 5.798ZM2.816 8.724L2.38409 8.47205L2.38188 8.47593L2.816 8.724ZM2.816 16.776L2.38058 17.0219L2.38411 17.0279L2.816 16.776ZM5.698 19.724L5.43769 20.1509L5.44152 20.1532L5.698 19.724ZM9.614 20.94C8.16644 20.94 6.8266 20.5623 5.58473 19.8034L5.06328 20.6566C6.4614 21.5111 7.98156 21.94 9.614 21.94V20.94ZM5.58473 19.8034C4.33534 19.0398 3.3456 18.0293 2.61006 16.7664L1.74594 17.2696C2.56506 18.6761 3.67266 19.8068 5.06328 20.6566L5.58473 19.8034ZM2.61328 16.772C1.89275 15.4972 1.534 14.1372 1.534 12.684H0.534C0.534 14.3108 0.937916 15.8401 1.74272 17.264L2.61328 16.772ZM1.534 12.684C1.534 11.2483 1.89858 9.91318 2.63084 8.66972L1.76916 8.16228C0.946749 9.55882 0.534 11.069 0.534 12.684H1.534ZM2.63206 8.66764C3.36665 7.40636 4.35417 6.41233 5.59972 5.67884L5.09228 4.81716C3.69783 5.63833 2.58801 6.75631 1.76794 8.16436L2.63206 8.66764ZM5.60325 5.67675C6.84551 4.93139 8.18658 4.56 9.636 4.56V3.56C8.00542 3.56 6.48649 3.98061 5.08875 4.81925L5.60325 5.67675ZM9.636 4.56C11.1028 4.56 12.4441 4.92546 13.6702 5.6556L14.1818 4.7964C12.7972 3.97188 11.2785 3.56 9.636 3.56V4.56ZM13.6702 5.6556C14.9005 6.38826 15.8735 7.38135 16.5939 8.64207L17.4621 8.14593C16.6572 6.73732 15.5622 5.6184 14.1818 4.7964L13.6702 5.6556ZM16.5972 8.64772C17.329 9.8904 17.694 11.2327 17.694 12.684H18.694C18.694 11.0553 18.2817 9.5376 17.4588 8.14028L16.5972 8.64772ZM17.694 12.684C17.694 14.182 17.3276 15.5623 16.5948 16.8344L17.4613 17.3336C18.2831 15.907 18.694 14.354 18.694 12.684H17.694ZM16.5939 16.8359C15.8738 18.0961 14.8934 19.0973 13.6468 19.8453L14.1612 20.7027C15.5546 19.8667 16.6569 18.7412 17.4621 17.3321L16.5939 16.8359ZM13.6482 19.8444C12.4221 20.5745 11.0808 20.94 9.614 20.94V21.94C11.2565 21.94 12.7752 21.5281 14.1598 20.7036L13.6482 19.8444ZM9.614 21.302C11.1118 21.302 12.5059 20.9184 13.7865 20.1532L13.2735 19.2948C12.1488 19.9669 10.9322 20.302 9.614 20.302V21.302ZM13.7903 20.1509C15.0656 19.3733 16.0785 18.3288 16.8241 17.0241L15.9559 16.5279C15.2935 17.6872 14.3997 18.6081 13.2697 19.2971L13.7903 20.1509ZM16.8232 17.0257C17.586 15.7024 17.968 14.2668 17.968 12.728H16.968C16.968 14.0932 16.6313 15.3563 15.9568 16.5263L16.8232 17.0257ZM17.968 12.728C17.968 11.2048 17.5939 9.7845 16.8461 8.47593L15.9779 8.97207C16.6381 10.1275 16.968 11.3765 16.968 12.728H17.968ZM16.8461 8.47593C16.1 7.17028 15.0859 6.13215 13.8085 5.36879L13.2955 6.22721C14.4234 6.90118 15.316 7.81372 15.9779 8.97207L16.8461 8.47593ZM13.8123 5.3711C12.5313 4.58998 11.1359 4.198 9.636 4.198V5.198C10.9521 5.198 12.1674 5.53935 13.2917 6.2249L13.8123 5.3711ZM9.636 4.198C8.12247 4.198 6.71959 4.58946 5.4377 5.3711L5.9583 6.2249C7.08174 5.53987 8.3042 5.198 9.636 5.198V4.198ZM5.44152 5.36879C4.165 6.13159 3.14453 7.16848 2.38411 8.47206L3.24789 8.97593C3.9248 7.81552 4.82567 6.90174 5.95448 6.22721L5.44152 5.36879ZM2.38188 8.47593C1.63412 9.7845 1.26 11.2048 1.26 12.728H2.26C2.26 11.3765 2.58988 10.1275 3.25012 8.97207L2.38188 8.47593ZM1.26 12.728C1.26 14.2649 1.63364 15.6991 2.38062 17.0219L3.25138 16.5301C2.59036 15.3596 2.26 14.0951 2.26 12.728H1.26ZM2.38411 17.0279C3.14403 18.3306 4.16328 19.3738 5.4377 20.1509L5.9583 19.2971C4.82738 18.6075 3.92531 17.6854 3.24789 16.5241L2.38411 17.0279ZM5.44152 20.1532C6.72212 20.9184 8.11616 21.302 9.614 21.302V20.302C8.29584 20.302 7.07921 19.9669 5.95448 19.2948L5.44152 20.1532ZM23.2105 20.516L22.9567 20.9468L22.96 20.9487L23.2105 20.516ZM21.3185 18.602L21.7556 18.3592L20.8185 16.6724V18.602H21.3185ZM21.3185 21V21.5H21.8185V21H21.3185ZM20.6145 21H20.1145V21.5H20.6145V21ZM20.6145 4.5V4H20.1145V4.5H20.6145ZM21.3185 4.5H21.8185V4H21.3185V4.5ZM21.3185 13.608H20.8185L21.7704 13.822L21.3185 13.608ZM23.1665 11.606L22.9104 11.1766L22.9104 11.1766L23.1665 11.606ZM28.4245 11.562L28.1696 11.9922L28.1731 11.9942L28.4245 11.562ZM30.3385 13.454L29.9084 13.7089L29.9084 13.7089L30.3385 13.454ZM30.3385 18.646L29.9084 18.3911L29.9084 18.3911L30.3385 18.646ZM28.4245 20.538L28.1731 20.1058L28.1696 20.1079L28.4245 20.538ZM28.0945 20.01L28.3504 20.4396L28.3571 20.4355L28.0945 20.01ZM29.7225 18.338L29.2906 18.0861L29.289 18.0889L29.7225 18.338ZM29.7225 13.784L30.1544 13.5321L30.1544 13.5321L29.7225 13.784ZM28.0725 12.112L27.8099 12.5376L27.8166 12.5416L28.0725 12.112ZM23.5625 12.112L23.3039 11.684L23.3 11.6865L23.5625 12.112ZM21.8905 13.806L21.4625 13.5474L21.4586 13.5541L21.8905 13.806ZM21.8905 18.338L21.4585 18.59L21.465 18.6006L21.8905 18.338ZM23.5845 20.01L23.3259 20.438L23.3326 20.4419L23.5845 20.01ZM25.8065 20.742C25.0068 20.742 24.2272 20.5268 23.461 20.0833L22.96 20.9487C23.8659 21.4732 24.8169 21.742 25.8065 21.742V20.742ZM23.4644 20.0852C22.7156 19.644 22.1501 19.0692 21.7556 18.3592L20.8814 18.8448C21.367 19.7188 22.0628 20.42 22.9567 20.9468L23.4644 20.0852ZM20.8185 18.602V21H21.8185V18.602H20.8185ZM21.3185 20.5H20.6145V21.5H21.3185V20.5ZM21.1145 21V4.5H20.1145V21H21.1145ZM20.6145 5H21.3185V4H20.6145V5ZM20.8185 4.5V13.608H21.8185V4.5H20.8185ZM21.7704 13.822C22.1217 13.0805 22.6671 12.4861 23.4227 12.0354L22.9104 11.1766C21.9939 11.7232 21.3074 12.4635 20.8666 13.394L21.7704 13.822ZM23.4227 12.0354C24.1855 11.5804 24.9776 11.358 25.8065 11.358V10.358C24.7874 10.358 23.8195 10.6343 22.9104 11.1766L23.4227 12.0354ZM25.8065 11.358C26.6735 11.358 27.4576 11.5702 28.1696 11.9921L28.6794 11.1319C27.8074 10.6151 26.8462 10.358 25.8065 10.358V11.358ZM28.1731 11.9942C28.9071 12.4212 29.4831 12.9913 29.9084 13.7089L30.7687 13.1991C30.2552 12.3327 29.5553 11.6414 28.676 11.1298L28.1731 11.9942ZM29.9084 13.7089C30.331 14.4222 30.5425 15.1992 30.5425 16.05H31.5425C31.5425 15.0235 31.2847 14.0698 30.7687 13.1991L29.9084 13.7089ZM30.5425 16.05C30.5425 16.9008 30.331 17.6778 29.9084 18.3911L30.7687 18.9009C31.2847 18.0302 31.5425 17.0765 31.5425 16.05H30.5425ZM29.9084 18.3911C29.4831 19.1087 28.9071 19.6788 28.1731 20.1058L28.676 20.9702C29.5553 20.4586 30.2552 19.7673 30.7687 18.9009L29.9084 18.3911ZM28.1696 20.1079C27.4576 20.5298 26.6735 20.742 25.8065 20.742V21.742C26.8462 21.742 27.8074 21.4849 28.6794 20.9681L28.1696 20.1079ZM25.8505 21.126C26.7468 21.126 27.5833 20.8966 28.3504 20.4396L27.8386 19.5804C27.2271 19.9447 26.5676 20.126 25.8505 20.126V21.126ZM28.3571 20.4355C29.1158 19.9674 29.7178 19.3499 30.1561 18.5871L29.289 18.0889C28.9352 18.7047 28.4519 19.202 27.832 19.5845L28.3571 20.4355ZM30.1544 18.5899C30.61 17.8088 30.8385 16.9591 30.8385 16.05H29.8385C29.8385 16.7835 29.6563 17.4592 29.2906 18.0861L30.1544 18.5899ZM30.8385 16.05C30.8385 15.1538 30.6092 14.3117 30.1544 13.5321L29.2906 14.0359C29.6572 14.6643 29.8385 15.3328 29.8385 16.05H30.8385ZM30.1544 13.5321C29.7018 12.7561 29.0917 12.1372 28.3284 11.6824L27.8166 12.5416C28.432 12.9082 28.9219 13.4039 29.2906 14.0359L30.1544 13.5321ZM28.3351 11.6865C27.5672 11.2127 26.7283 10.974 25.8285 10.974V11.974C26.542 11.974 27.1992 12.1607 27.81 12.5375L28.3351 11.6865ZM25.8285 10.974C24.9288 10.974 24.0844 11.2126 23.304 11.684L23.8211 12.54C24.4487 12.1608 25.1149 11.974 25.8285 11.974V10.974ZM23.3 11.6865C22.5419 12.1542 21.9283 12.7765 21.4626 13.5474L22.3185 14.0646C22.7034 13.4275 23.2044 12.9205 23.8251 12.5375L23.3 11.6865ZM21.4586 13.5541C21.0038 14.3337 20.7745 15.1758 20.7745 16.072H21.7745C21.7745 15.3548 21.9559 14.6863 22.3224 14.0579L21.4586 13.5541ZM20.7745 16.072C20.7745 16.9682 21.0038 17.8103 21.4586 18.5899L22.3224 18.0861C21.9559 17.4577 21.7745 16.7892 21.7745 16.072H20.7745ZM21.465 18.6006C21.9327 19.3586 22.555 19.9722 23.326 20.438L23.8431 19.582C23.206 19.1971 22.699 18.6961 22.316 18.0754L21.465 18.6006ZM23.3326 20.4419C24.1122 20.8967 24.9544 21.126 25.8505 21.126V20.126C25.1333 20.126 24.4648 19.9447 23.8365 19.5781L23.3326 20.4419ZM33.7753 20.89L33.5665 21.3445L33.5769 21.3489L33.7753 20.89ZM32.6093 19.944H32.1093V20.0855L32.1835 20.206L32.6093 19.944ZM32.6093 18.778L33.0667 18.5759L32.1093 18.778H32.6093ZM33.7533 20.186L33.4848 20.6079L33.4942 20.6136L33.7533 20.186ZM37.3393 19.966L37.6929 20.3196L37.6986 20.3137L37.3393 19.966ZM37.6253 16.842L37.2231 17.1393L37.2297 17.1477L37.6253 16.842ZM36.4153 15.83L36.6743 15.4022L36.6658 15.3973L36.4153 15.83ZM35.5793 15.346L35.319 15.773L35.3288 15.7787L35.5793 15.346ZM34.2153 14.488L33.9153 14.888L33.9264 14.8963L33.938 14.904L34.2153 14.488ZM33.5113 13.762L33.0885 14.0291L33.0953 14.0393L33.5113 13.762ZM33.8633 11.386L34.1887 11.7656L34.1887 11.7656L33.8633 11.386ZM37.4933 11.408H37.9933V11.1424L37.7733 10.9937L37.4933 11.408ZM37.4933 12.376L37.0945 12.6776L37.9933 13.8663V12.376H37.4933ZM34.3913 11.826L34.079 11.4356L34.079 11.4356L34.3913 11.826ZM34.2153 13.586L33.8068 13.8743L33.811 13.8802L33.8153 13.886L34.2153 13.586ZM34.9413 14.246L34.6639 14.6621L34.6729 14.6678L34.9413 14.246ZM36.5253 15.17L36.7725 14.7353L36.7696 14.7337L36.5253 15.17ZM38.1753 16.49L37.7799 16.7961L37.7849 16.8023L38.1753 16.49ZM37.8013 20.428L38.1408 20.795L38.1412 20.7947L37.8013 20.428ZM35.6453 20.742C34.9968 20.742 34.443 20.634 33.9738 20.4311L33.5769 21.3489C34.193 21.6153 34.8859 21.742 35.6453 21.742V20.742ZM33.9841 20.4357C33.5018 20.2141 33.2034 19.9553 33.0352 19.682L32.1835 20.206C32.4846 20.6954 32.9635 21.0673 33.5666 21.3443L33.9841 20.4357ZM33.1093 19.944V18.778H32.1093V19.944H33.1093ZM32.152 18.9801C32.4624 19.6826 32.9021 20.2369 33.4849 20.6078L34.0218 19.7642C33.6366 19.5191 33.3136 19.1348 33.0667 18.5759L32.152 18.9801ZM33.4942 20.6136C34.0776 20.9672 34.7906 21.126 35.6013 21.126V20.126C34.9161 20.126 34.397 19.9915 34.0125 19.7584L33.4942 20.6136ZM35.6013 21.126C36.4304 21.126 37.1445 20.868 37.6929 20.3196L36.9858 19.6124C36.6542 19.944 36.2096 20.126 35.6013 20.126V21.126ZM37.6986 20.3137C38.2394 19.7549 38.4993 19.0458 38.4993 18.228H37.4993C37.4993 18.8182 37.3193 19.2677 36.98 19.6183L37.6986 20.3137ZM38.4993 18.228C38.4993 17.5665 38.3634 16.9794 38.021 16.5363L37.2297 17.1477C37.3859 17.3499 37.4993 17.6869 37.4993 18.228H38.4993ZM38.0274 16.5448C37.7239 16.1342 37.2598 15.7567 36.6742 15.4022L36.1564 16.2577C36.6855 16.578 37.0281 16.8751 37.2232 17.1392L38.0274 16.5448ZM36.6658 15.3973L35.8298 14.9133L35.3288 15.7787L36.1648 16.2627L36.6658 15.3973ZM35.8396 14.9191C35.2399 14.5534 34.7921 14.2716 34.4927 14.072L33.938 14.904C34.2545 15.1151 34.7161 15.4052 35.319 15.7729L35.8396 14.9191ZM34.5153 14.088C34.2604 13.8968 34.0674 13.6948 33.9274 13.4846L33.0953 14.0393C33.3072 14.3572 33.5836 14.6392 33.9153 14.888L34.5153 14.088ZM33.9341 13.495C33.8141 13.305 33.7473 13.0771 33.7473 12.794H32.7473C32.7473 13.2442 32.8566 13.6616 33.0886 14.029L33.9341 13.495ZM33.7473 12.794C33.7473 12.3393 33.8991 12.0139 34.1887 11.7656L33.5379 11.0064C33.0063 11.4621 32.7473 12.0754 32.7473 12.794H33.7473ZM34.1887 11.7656C34.49 11.5074 34.9013 11.358 35.4693 11.358V10.358C34.7173 10.358 34.058 10.5606 33.5379 11.0064L34.1887 11.7656ZM35.4693 11.358C36.1995 11.358 36.7708 11.5232 37.2134 11.8223L37.7733 10.9937C37.1305 10.5594 36.3525 10.358 35.4693 10.358V11.358ZM36.9933 11.408V12.376H37.9933V11.408H36.9933ZM37.8922 12.0744C37.3299 11.3308 36.5197 10.974 35.5353 10.974V11.974C36.2523 11.974 36.7474 12.2185 37.0945 12.6776L37.8922 12.0744ZM35.5353 10.974C34.9814 10.974 34.4812 11.1138 34.079 11.4356L34.7037 12.2164C34.8881 12.0689 35.1506 11.974 35.5353 11.974V10.974ZM34.079 11.4356C33.6704 11.7624 33.4513 12.2052 33.4513 12.728H34.4513C34.4513 12.5175 34.5256 12.3589 34.7037 12.2164L34.079 11.4356ZM33.4513 12.728C33.4513 13.1477 33.5678 13.5357 33.8068 13.8743L34.6238 13.2977C34.5109 13.1377 34.4513 12.9537 34.4513 12.728H33.4513ZM33.8153 13.886C34.0329 14.1761 34.3206 14.4331 34.664 14.662L35.2187 13.83C34.946 13.6482 34.7497 13.4652 34.6153 13.286L33.8153 13.886ZM34.6729 14.6678C35.0083 14.8813 35.5468 15.1951 36.281 15.6063L36.7696 14.7337C36.0372 14.3236 35.5197 14.0214 35.2098 13.8242L34.6729 14.6678ZM36.2782 15.6046C36.9946 16.012 37.4833 16.4129 37.78 16.7961L38.5707 16.1839C38.1634 15.6578 37.5521 15.1786 36.7725 14.7354L36.2782 15.6046ZM37.7849 16.8023C38.0484 17.1317 38.2033 17.5911 38.2033 18.228H39.2033C39.2033 17.4276 39.0063 16.7283 38.5658 16.1777L37.7849 16.8023ZM38.2033 18.228C38.2033 19.015 37.949 19.6094 37.4614 20.0613L38.1412 20.7947C38.8564 20.1319 39.2033 19.2597 39.2033 18.228H38.2033ZM37.4618 20.061C36.9739 20.5123 36.379 20.742 35.6453 20.742V21.742C36.613 21.742 37.4555 21.429 38.1408 20.795L37.4618 20.061ZM47.8918 20.054L47.6427 19.6204L47.6427 19.6204L47.8918 20.054ZM49.6078 18.426H50.1078V16.7598L49.1904 18.1507L49.6078 18.426ZM49.6078 19.548L49.979 19.883L50.1078 19.7403V19.548H49.6078ZM47.8258 20.868L48.0151 21.3309L48.024 21.327L47.8258 20.868ZM43.0518 20.538L42.791 20.9647L42.7945 20.9667L43.0518 20.538ZM41.1378 18.602L40.7056 18.8535L40.709 18.8592L41.1378 18.602ZM41.1378 13.388L41.5658 13.6464L41.5679 13.6429L41.1378 13.388ZM43.0518 11.54L42.8156 11.0992L42.8123 11.1011L43.0518 11.54ZM49.6738 12.684L50.025 13.0398L50.363 12.7062L50.0472 12.3515L49.6738 12.684ZM42.7658 19.504L42.4145 19.1482L42.0188 19.5389L42.4491 19.891L42.7658 19.504ZM44.1738 20.384L43.9803 20.8453L43.9933 20.8503L44.1738 20.384ZM42.3478 19.086L41.982 19.4269L42.3339 19.8044L42.7001 19.4408L42.3478 19.086ZM48.7938 12.684L49.1461 13.0388L49.5258 12.6617L49.1238 12.3084L48.7938 12.684ZM47.3858 11.782L47.1923 12.2433L47.2053 12.2483L47.3858 11.782ZM43.3598 12.09L43.6018 12.5275L43.6049 12.5258L43.3598 12.09ZM41.7318 13.674L41.3006 13.4209L41.7318 13.674ZM45.7138 21.148C46.5676 21.148 47.3791 20.9252 48.1408 20.4876L47.6427 19.6204C47.0258 19.9748 46.3853 20.148 45.7138 20.148V21.148ZM48.1408 20.4876C48.9005 20.0511 49.5292 19.4532 50.0252 18.7013L49.1904 18.1507C48.777 18.7775 48.2617 19.2649 47.6427 19.6204L48.1408 20.4876ZM49.1078 18.426V19.548H50.1078V18.426H49.1078ZM49.2366 19.213C48.7347 19.7691 48.1977 20.1628 47.6275 20.409L48.024 21.327C48.7445 21.0159 49.3955 20.5295 49.979 19.883L49.2366 19.213ZM47.6364 20.4052C47.0609 20.6407 46.3935 20.764 45.6258 20.764V21.764C46.5007 21.764 47.3 21.6233 48.0151 21.3308L47.6364 20.4052ZM45.6258 20.764C44.8103 20.764 44.0408 20.5483 43.309 20.1093L42.7945 20.9667C43.6761 21.4957 44.6226 21.764 45.6258 21.764V20.764ZM43.3125 20.1114C42.5903 19.67 42.0096 19.0832 41.5665 18.3448L40.709 18.8592C41.234 19.7341 41.9292 20.438 42.791 20.9646L43.3125 20.1114ZM41.5699 18.3506C41.1438 17.6181 40.9338 16.8466 40.9338 16.028H39.9338C39.9338 17.0281 40.1931 17.9725 40.7056 18.8534L41.5699 18.3506ZM40.9338 16.028C40.9338 15.1287 41.1474 14.3394 41.5658 13.6464L40.7097 13.1296C40.1895 13.9913 39.9338 14.962 39.9338 16.028H40.9338ZM41.5679 13.6429C41.9915 12.9281 42.5637 12.3758 43.2912 11.9789L42.8123 11.1011C41.9265 11.5842 41.2227 12.2639 40.7076 13.1331L41.5679 13.6429ZM43.2879 11.9807C44.0315 11.5824 44.8589 11.38 45.7798 11.38V10.38C44.706 10.38 43.7147 10.6176 42.8157 11.0993L43.2879 11.9807ZM45.7798 11.38C47.1537 11.38 48.3185 11.9137 49.3003 13.0165L50.0472 12.3515C48.8877 11.049 47.4565 10.38 45.7798 10.38V11.38ZM49.3225 12.3282L42.4145 19.1482L43.117 19.8598L50.025 13.0398L49.3225 12.3282ZM42.4491 19.891C42.961 20.3097 43.4712 20.6316 43.9804 20.8451L44.3671 19.9229C43.967 19.7551 43.5386 19.4903 43.0824 19.117L42.4491 19.891ZM43.9933 20.8503C44.5145 21.0521 45.0905 21.148 45.7138 21.148V20.148C45.193 20.148 44.7423 20.0679 44.3543 19.9177L43.9933 20.8503ZM40.6378 15.962C40.6378 17.3018 41.0863 18.4661 41.982 19.4269L42.7135 18.7451C41.9959 17.9752 41.6378 17.0569 41.6378 15.962H40.6378ZM42.7001 19.4408L49.1461 13.0388L48.4414 12.3292L41.9954 18.7312L42.7001 19.4408ZM49.1238 12.3084C48.6091 11.8561 48.0902 11.5185 47.5663 11.3157L47.2053 12.2483C47.5907 12.3975 48.0105 12.6613 48.4637 13.0596L49.1238 12.3084ZM47.5791 11.3209C47.0487 11.0985 46.4371 10.996 45.7578 10.996V11.996C46.3398 11.996 46.8135 12.0842 47.1924 12.2431L47.5791 11.3209ZM45.7578 10.996C44.7867 10.996 43.9013 11.2117 43.1146 11.6542L43.6049 12.5258C44.2262 12.1763 44.9395 11.996 45.7578 11.996V10.996ZM43.1177 11.6525C42.3505 12.0769 41.7423 12.6683 41.3006 13.4209L42.163 13.9271C42.5133 13.3303 42.9903 12.8658 43.6018 12.5275L43.1177 11.6525ZM41.3006 13.4209C40.8556 14.1789 40.6378 15.0304 40.6378 15.962H41.6378C41.6378 15.1923 41.8159 14.5184 42.163 13.9271L41.3006 13.4209ZM52.4023 20.89L52.1935 21.3445L52.2038 21.3489L52.4023 20.89ZM51.2363 19.944H50.7363V20.0855L50.8105 20.206L51.2363 19.944ZM51.2363 18.778L51.6936 18.5759L50.7363 18.778H51.2363ZM52.3803 20.186L52.1118 20.6079L52.1211 20.6136L52.3803 20.186ZM55.9663 19.966L56.3199 20.3196L56.3256 20.3137L55.9663 19.966ZM56.2523 16.842L55.8501 17.1393L55.8566 17.1477L56.2523 16.842ZM55.0423 15.83L55.3012 15.4022L55.2928 15.3973L55.0423 15.83ZM54.2063 15.346L53.9459 15.773L53.9558 15.7787L54.2063 15.346ZM52.8423 14.488L52.5423 14.888L52.5534 14.8963L52.5649 14.904L52.8423 14.488ZM52.1383 13.762L51.7154 14.0291L51.7223 14.0393L52.1383 13.762ZM52.4903 11.386L52.8157 11.7656L52.8157 11.7656L52.4903 11.386ZM56.1203 11.408H56.6203V11.1424L56.4002 10.9937L56.1203 11.408ZM56.1203 12.376L55.7215 12.6776L56.6203 13.8663V12.376H56.1203ZM53.0183 11.826L52.7059 11.4356L52.7059 11.4356L53.0183 11.826ZM52.8423 13.586L52.4338 13.8743L52.438 13.8802L52.4423 13.886L52.8423 13.586ZM53.5683 14.246L53.2909 14.6621L53.2998 14.6678L53.5683 14.246ZM55.1523 15.17L55.3994 14.7353L55.3966 14.7337L55.1523 15.17ZM56.8023 16.49L56.4069 16.7961L56.4118 16.8023L56.8023 16.49ZM56.4283 20.428L56.7678 20.795L56.7682 20.7947L56.4283 20.428ZM54.2723 20.742C53.6237 20.742 53.07 20.634 52.6007 20.4311L52.2038 21.3489C52.8199 21.6153 53.5128 21.742 54.2723 21.742V20.742ZM52.611 20.4357C52.1288 20.2141 51.8303 19.9553 51.6621 19.682L50.8105 20.206C51.1116 20.6954 51.5905 21.0673 52.1935 21.3443L52.611 20.4357ZM51.7363 19.944V18.778H50.7363V19.944H51.7363ZM50.7789 18.9801C51.0893 19.6826 51.529 20.2369 52.1118 20.6078L52.6487 19.7642C52.2636 19.5191 51.9406 19.1348 51.6936 18.5759L50.7789 18.9801ZM52.1211 20.6136C52.7046 20.9672 53.4175 21.126 54.2283 21.126V20.126C53.543 20.126 53.024 19.9915 52.6394 19.7584L52.1211 20.6136ZM54.2283 21.126C55.0573 21.126 55.7714 20.868 56.3198 20.3196L55.6127 19.6124C55.2811 19.944 54.8366 20.126 54.2283 20.126V21.126ZM56.3256 20.3137C56.8663 19.7549 57.1263 19.0458 57.1263 18.228H56.1263C56.1263 18.8182 55.9462 19.2677 55.607 19.6183L56.3256 20.3137ZM57.1263 18.228C57.1263 17.5665 56.9904 16.9794 56.6479 16.5363L55.8566 17.1477C56.0129 17.3499 56.1263 17.6869 56.1263 18.228H57.1263ZM56.6544 16.5448C56.3509 16.1342 55.8868 15.7567 55.3012 15.4022L54.7834 16.2577C55.3125 16.578 55.655 16.8751 55.8502 17.1392L56.6544 16.5448ZM55.2928 15.3973L54.4568 14.9133L53.9558 15.7787L54.7918 16.2627L55.2928 15.3973ZM54.4666 14.9191C53.8669 14.5534 53.4191 14.2716 53.1196 14.072L52.5649 14.904C52.8815 15.1151 53.343 15.4052 53.946 15.7729L54.4666 14.9191ZM53.1423 14.088C52.8874 13.8968 52.6944 13.6948 52.5543 13.4846L51.7223 14.0393C51.9342 14.3572 52.2105 14.6392 52.5423 14.888L53.1423 14.088ZM52.561 13.495C52.4411 13.305 52.3743 13.0771 52.3743 12.794H51.3743C51.3743 13.2442 51.4835 13.6616 51.7155 14.029L52.561 13.495ZM52.3743 12.794C52.3743 12.3393 52.526 12.0139 52.8157 11.7656L52.1649 11.0064C51.6332 11.4621 51.3743 12.0754 51.3743 12.794H52.3743ZM52.8157 11.7656C53.1169 11.5074 53.5283 11.358 54.0963 11.358V10.358C53.3443 10.358 52.685 10.5606 52.1649 11.0064L52.8157 11.7656ZM54.0963 11.358C54.8265 11.358 55.3978 11.5232 55.8404 11.8223L56.4002 10.9937C55.7575 10.5594 54.9794 10.358 54.0963 10.358V11.358ZM55.6203 11.408V12.376H56.6203V11.408H55.6203ZM56.5191 12.0744C55.9569 11.3308 55.1466 10.974 54.1623 10.974V11.974C54.8793 11.974 55.3744 12.2185 55.7215 12.6776L56.5191 12.0744ZM54.1623 10.974C53.6084 10.974 53.1082 11.1138 52.7059 11.4356L53.3306 12.2164C53.5151 12.0689 53.7775 11.974 54.1623 11.974V10.974ZM52.7059 11.4356C52.2974 11.7624 52.0783 12.2052 52.0783 12.728H53.0783C53.0783 12.5175 53.1525 12.3589 53.3306 12.2164L52.7059 11.4356ZM52.0783 12.728C52.0783 13.1477 52.1947 13.5357 52.4338 13.8743L53.2508 13.2977C53.1378 13.1377 53.0783 12.9537 53.0783 12.728H52.0783ZM52.4423 13.886C52.6599 14.1761 52.9476 14.4331 53.2909 14.662L53.8456 13.83C53.573 13.6482 53.3767 13.4652 53.2423 13.286L52.4423 13.886ZM53.2998 14.6678C53.6352 14.8813 54.1737 15.1951 54.908 15.6063L55.3966 14.7337C54.6642 14.3236 54.1467 14.0214 53.8367 13.8242L53.2998 14.6678ZM54.9051 15.6046C55.6216 16.012 56.1103 16.4129 56.4069 16.7961L57.1976 16.1839C56.7903 15.6578 56.179 15.1786 55.3994 14.7354L54.9051 15.6046ZM56.4118 16.8023C56.6753 17.1317 56.8303 17.5911 56.8303 18.228H57.8303C57.8303 17.4276 57.6332 16.7283 57.1927 16.1777L56.4118 16.8023ZM56.8303 18.228C56.8303 19.015 56.5759 19.6094 56.0884 20.0613L56.7682 20.7947C57.4833 20.1319 57.8303 19.2597 57.8303 18.228H56.8303ZM56.0888 20.061C55.6008 20.5123 55.006 20.742 54.2723 20.742V21.742C55.2399 21.742 56.0824 21.429 56.7678 20.795L56.0888 20.061ZM60.0507 20.89L59.8419 21.3445L59.8523 21.3489L60.0507 20.89ZM58.8847 19.944H58.3847V20.0855L58.4589 20.206L58.8847 19.944ZM58.8847 18.778L59.3421 18.5759L58.3847 18.778H58.8847ZM60.0287 20.186L59.7602 20.6079L59.7696 20.6136L60.0287 20.186ZM63.6147 19.966L63.9683 20.3196L63.974 20.3137L63.6147 19.966ZM63.9007 16.842L63.4985 17.1393L63.5051 17.1477L63.9007 16.842ZM62.6907 15.83L62.9497 15.4022L62.9412 15.3973L62.6907 15.83ZM61.8547 15.346L61.5943 15.773L61.6042 15.7787L61.8547 15.346ZM60.4907 14.488L60.1907 14.888L60.2018 14.8963L60.2134 14.904L60.4907 14.488ZM59.7867 13.762L59.3638 14.0291L59.3707 14.0393L59.7867 13.762ZM60.1387 11.386L60.4641 11.7656L60.4641 11.7656L60.1387 11.386ZM63.7687 11.408H64.2687V11.1424L64.0486 10.9937L63.7687 11.408ZM63.7687 12.376L63.3699 12.6776L64.2687 13.8663V12.376H63.7687ZM60.6667 11.826L60.3544 11.4356L60.3544 11.4356L60.6667 11.826ZM60.4907 13.586L60.0822 13.8743L60.0864 13.8802L60.0907 13.886L60.4907 13.586ZM61.2167 14.246L60.9393 14.6621L60.9483 14.6678L61.2167 14.246ZM62.8007 15.17L63.0479 14.7353L63.045 14.7337L62.8007 15.17ZM64.4507 16.49L64.0553 16.7961L64.0603 16.8023L64.4507 16.49ZM64.0767 20.428L64.4162 20.795L64.4166 20.7947L64.0767 20.428ZM61.9207 20.742C61.2722 20.742 60.7184 20.634 60.2492 20.4311L59.8523 21.3489C60.4684 21.6153 61.1613 21.742 61.9207 21.742V20.742ZM60.2595 20.4357C59.7772 20.2141 59.4788 19.9553 59.3105 19.682L58.4589 20.206C58.76 20.6954 59.2389 21.0673 59.842 21.3443L60.2595 20.4357ZM59.3847 19.944V18.778H58.3847V19.944H59.3847ZM58.4274 18.9801C58.7378 19.6826 59.1774 20.2369 59.7603 20.6078L60.2972 19.7642C59.912 19.5191 59.589 19.1348 59.3421 18.5759L58.4274 18.9801ZM59.7696 20.6136C60.353 20.9672 61.066 21.126 61.8767 21.126V20.126C61.1915 20.126 60.6724 19.9915 60.2879 19.7584L59.7696 20.6136ZM61.8767 21.126C62.7057 21.126 63.4199 20.868 63.9683 20.3196L63.2612 19.6124C62.9296 19.944 62.485 20.126 61.8767 20.126V21.126ZM63.974 20.3137C64.5148 19.7549 64.7747 19.0458 64.7747 18.228H63.7747C63.7747 18.8182 63.5947 19.2677 63.2554 19.6183L63.974 20.3137ZM64.7747 18.228C64.7747 17.5665 64.6388 16.9794 64.2964 16.5363L63.5051 17.1477C63.6613 17.3499 63.7747 17.6869 63.7747 18.228H64.7747ZM64.3028 16.5448C63.9993 16.1342 63.5352 15.7567 62.9496 15.4022L62.4318 16.2577C62.9609 16.578 63.3035 16.8751 63.4986 17.1392L64.3028 16.5448ZM62.9412 15.3973L62.1052 14.9133L61.6042 15.7787L62.4402 16.2627L62.9412 15.3973ZM62.115 14.9191C61.5153 14.5534 61.0675 14.2716 60.7681 14.072L60.2134 14.904C60.5299 15.1151 60.9915 15.4052 61.5944 15.7729L62.115 14.9191ZM60.7907 14.088C60.5358 13.8968 60.3428 13.6948 60.2027 13.4846L59.3707 14.0393C59.5826 14.3572 59.859 14.6392 60.1907 14.888L60.7907 14.088ZM60.2095 13.495C60.0895 13.305 60.0227 13.0771 60.0227 12.794H59.0227C59.0227 13.2442 59.1319 13.6616 59.364 14.029L60.2095 13.495ZM60.0227 12.794C60.0227 12.3393 60.1745 12.0139 60.4641 11.7656L59.8133 11.0064C59.2816 11.4621 59.0227 12.0754 59.0227 12.794H60.0227ZM60.4641 11.7656C60.7654 11.5074 61.1767 11.358 61.7447 11.358V10.358C60.9927 10.358 60.3334 10.5606 59.8133 11.0064L60.4641 11.7656ZM61.7447 11.358C62.4749 11.358 63.0462 11.5232 63.4888 11.8223L64.0486 10.9937C63.4059 10.5594 62.6279 10.358 61.7447 10.358V11.358ZM63.2687 11.408V12.376H64.2687V11.408H63.2687ZM64.1675 12.0744C63.6053 11.3308 62.7951 10.974 61.8107 10.974V11.974C62.5277 11.974 63.0228 12.2185 63.3699 12.6776L64.1675 12.0744ZM61.8107 10.974C61.2568 10.974 60.7566 11.1138 60.3544 11.4356L60.9791 12.2164C61.1635 12.0689 61.4259 11.974 61.8107 11.974V10.974ZM60.3544 11.4356C59.9458 11.7624 59.7267 12.2052 59.7267 12.728H60.7267C60.7267 12.5175 60.801 12.3589 60.9791 12.2164L60.3544 11.4356ZM59.7267 12.728C59.7267 13.1477 59.8432 13.5357 60.0822 13.8743L60.8992 13.2977C60.7863 13.1377 60.7267 12.9537 60.7267 12.728H59.7267ZM60.0907 13.886C60.3083 14.1761 60.596 14.4331 60.9394 14.662L61.4941 13.83C61.2214 13.6482 61.0251 13.4652 60.8907 13.286L60.0907 13.886ZM60.9483 14.6678C61.2837 14.8813 61.8222 15.1951 62.5564 15.6063L63.045 14.7337C62.3126 14.3236 61.7951 14.0214 61.4852 13.8242L60.9483 14.6678ZM62.5536 15.6046C63.27 16.012 63.7587 16.4129 64.0554 16.7961L64.8461 16.1839C64.4387 15.6578 63.8274 15.1786 63.0479 14.7354L62.5536 15.6046ZM64.0603 16.8023C64.3238 17.1317 64.4787 17.5911 64.4787 18.228H65.4787C65.4787 17.4276 65.2817 16.7283 64.8412 16.1777L64.0603 16.8023ZM64.4787 18.228C64.4787 19.015 64.2243 19.6094 63.7368 20.0613L64.4166 20.7947C65.1318 20.1319 65.4787 19.2597 65.4787 18.228H64.4787ZM63.7372 20.061C63.2493 20.5123 62.6544 20.742 61.9207 20.742V21.742C62.8884 21.742 63.7308 21.429 64.4162 20.795L63.7372 20.061ZM74.1672 20.054L73.9181 19.6204L73.9181 19.6204L74.1672 20.054ZM75.8832 18.426H76.3832V16.7598L75.4658 18.1507L75.8832 18.426ZM75.8832 19.548L76.2544 19.883L76.3832 19.7403V19.548H75.8832ZM74.1012 20.868L74.2905 21.3309L74.2994 21.327L74.1012 20.868ZM69.3272 20.538L69.0664 20.9647L69.0699 20.9667L69.3272 20.538ZM67.4132 18.602L66.9809 18.8535L66.9844 18.8592L67.4132 18.602ZM67.4132 13.388L67.8412 13.6464L67.8433 13.6429L67.4132 13.388ZM69.3272 11.54L69.091 11.0992L69.0877 11.1011L69.3272 11.54ZM75.9492 12.684L76.3004 13.0398L76.6384 12.7062L76.3226 12.3515L75.9492 12.684ZM69.0412 19.504L68.6899 19.1482L68.2942 19.5389L68.7245 19.891L69.0412 19.504ZM70.4492 20.384L70.2557 20.8453L70.2687 20.8503L70.4492 20.384ZM68.6232 19.086L68.2574 19.4269L68.6093 19.8044L68.9755 19.4408L68.6232 19.086ZM75.0692 12.684L75.4215 13.0388L75.8012 12.6617L75.3992 12.3084L75.0692 12.684ZM73.6612 11.782L73.4677 12.2433L73.4807 12.2483L73.6612 11.782ZM69.6352 12.09L69.8772 12.5275L69.8803 12.5258L69.6352 12.09ZM68.0072 13.674L67.5759 13.4209L68.0072 13.674ZM71.9892 21.148C72.843 21.148 73.6544 20.9252 74.4162 20.4876L73.9181 19.6204C73.3012 19.9748 72.6606 20.148 71.9892 20.148V21.148ZM74.4162 20.4876C75.1759 20.0511 75.8046 19.4532 76.3005 18.7013L75.4658 18.1507C75.0524 18.7775 74.5371 19.2649 73.9181 19.6204L74.4162 20.4876ZM75.3832 18.426V19.548H76.3832V18.426H75.3832ZM75.512 19.213C75.0101 19.7691 74.4731 20.1628 73.9029 20.409L74.2994 21.327C75.0199 21.0159 75.6709 20.5295 76.2544 19.883L75.512 19.213ZM73.9118 20.4052C73.3363 20.6407 72.6689 20.764 71.9012 20.764V21.764C72.7761 21.764 73.5754 21.6233 74.2905 21.3308L73.9118 20.4052ZM71.9012 20.764C71.0857 20.764 70.3162 20.5483 69.5844 20.1093L69.0699 20.9667C69.9515 21.4957 70.898 21.764 71.9012 21.764V20.764ZM69.5879 20.1114C68.8657 19.67 68.285 19.0832 67.8419 18.3448L66.9844 18.8592C67.5093 19.7341 68.2046 20.438 69.0664 20.9646L69.5879 20.1114ZM67.8453 18.3506C67.4192 17.6181 67.2092 16.8466 67.2092 16.028H66.2092C66.2092 17.0281 66.4684 17.9725 66.981 18.8534L67.8453 18.3506ZM67.2092 16.028C67.2092 15.1287 67.4228 14.3394 67.8412 13.6464L66.9851 13.1296C66.4649 13.9913 66.2092 14.962 66.2092 16.028H67.2092ZM67.8433 13.6429C68.2669 12.9281 68.839 12.3758 69.5666 11.9789L69.0877 11.1011C68.2019 11.5842 67.4981 12.2639 66.983 13.1331L67.8433 13.6429ZM69.5633 11.9807C70.3069 11.5824 71.1342 11.38 72.0552 11.38V10.38C70.9814 10.38 69.9901 10.6176 69.091 11.0993L69.5633 11.9807ZM72.0552 11.38C73.4291 11.38 74.5939 11.9137 75.5757 13.0165L76.3226 12.3515C75.163 11.049 73.7319 10.38 72.0552 10.38V11.38ZM75.5979 12.3282L68.6899 19.1482L69.3924 19.8598L76.3004 13.0398L75.5979 12.3282ZM68.7245 19.891C69.2363 20.3097 69.7466 20.6316 70.2558 20.8451L70.6425 19.9229C70.2423 19.7551 69.814 19.4903 69.3578 19.117L68.7245 19.891ZM70.2687 20.8503C70.7899 21.0521 71.3659 21.148 71.9892 21.148V20.148C71.4684 20.148 71.0177 20.0679 70.6297 19.9177L70.2687 20.8503ZM66.9132 15.962C66.9132 17.3018 67.3617 18.4661 68.2574 19.4269L68.9889 18.7451C68.2712 17.9752 67.9132 17.0569 67.9132 15.962H66.9132ZM68.9755 19.4408L75.4215 13.0388L74.7168 12.3292L68.2708 18.7312L68.9755 19.4408ZM75.3992 12.3084C74.8845 11.8561 74.3656 11.5185 73.8417 11.3157L73.4807 12.2483C73.8661 12.3975 74.2859 12.6613 74.7391 13.0596L75.3992 12.3084ZM73.8545 11.3209C73.3241 11.0985 72.7124 10.996 72.0332 10.996V11.996C72.6152 11.996 73.0889 12.0842 73.4678 12.2431L73.8545 11.3209ZM72.0332 10.996C71.0621 10.996 70.1767 11.2117 69.39 11.6542L69.8803 12.5258C70.5016 12.1763 71.2149 11.996 72.0332 11.996V10.996ZM69.3931 11.6525C68.6259 12.0769 68.0177 12.6683 67.5759 13.4209L68.4384 13.9271C68.7886 13.3303 69.2657 12.8658 69.8772 12.5275L69.3931 11.6525ZM67.5759 13.4209C67.131 14.1789 66.9132 15.0304 66.9132 15.962H67.9132C67.9132 15.1923 68.0913 14.5184 68.4384 13.9271L67.5759 13.4209ZM80.1737 20.538L79.9188 20.9682L79.9222 20.9702L80.1737 20.538ZM78.2817 18.646L78.7118 18.3911L78.7118 18.3911L78.2817 18.646ZM78.2817 13.454L77.8515 13.1991L77.8515 13.1991L78.2817 13.454ZM80.1737 11.562L79.9222 11.1298L79.9188 11.1319L80.1737 11.562ZM85.4537 11.606L85.1975 12.0354L85.2032 12.0387L85.4537 11.606ZM87.3017 13.52L86.8545 13.7436L87.8017 13.52H87.3017ZM87.3017 4.5V4H86.8017V4.5H87.3017ZM88.0057 4.5H88.5057V4H88.0057V4.5ZM88.0057 21V21.5H88.5057V21H88.0057ZM87.3017 21H86.8017V21.5H87.3017V21ZM87.3017 18.602H87.8017V16.6724L86.8646 18.3592L87.3017 18.602ZM85.3877 20.516L85.1371 20.0833L85.1338 20.0852L85.3877 20.516ZM85.0357 20.01L85.2916 20.4396L85.2942 20.438L85.0357 20.01ZM86.7077 18.338L86.2797 18.0794L86.2781 18.0821L86.7077 18.338ZM86.7077 13.806L86.2757 14.058L86.2797 14.0646L86.7077 13.806ZM85.0357 12.112L84.7731 12.5375L84.7771 12.54L85.0357 12.112ZM80.5477 12.112L80.8036 12.5416L80.8102 12.5375L80.5477 12.112ZM78.8977 13.784L78.4658 13.5321L78.8977 13.784ZM78.8757 18.338L78.4397 18.5832L78.4461 18.5939L78.8757 18.338ZM80.5257 20.01L80.263 20.4356L80.2737 20.4419L80.5257 20.01ZM82.8137 20.742C81.9467 20.742 81.1537 20.5297 80.4251 20.1058L79.9222 20.9702C80.8069 21.4849 81.774 21.742 82.8137 21.742V20.742ZM80.4286 20.1079C79.7088 19.6813 79.1384 19.1109 78.7118 18.3911L77.8515 18.9009C78.3636 19.7651 79.0546 20.456 79.9188 20.9681L80.4286 20.1079ZM78.7118 18.3911C78.2891 17.6778 78.0777 16.9008 78.0777 16.05H77.0777C77.0777 17.0765 77.3355 18.0302 77.8515 18.9009L78.7118 18.3911ZM78.0777 16.05C78.0777 15.1992 78.2891 14.4222 78.7118 13.7089L77.8515 13.1991C77.3355 14.0698 77.0777 15.0235 77.0777 16.05H78.0777ZM78.7118 13.7089C79.1384 12.9891 79.7088 12.4187 80.4286 11.9921L79.9188 11.1319C79.0546 11.644 78.3636 12.3349 77.8515 13.1991L78.7118 13.7089ZM80.4251 11.9942C81.1537 11.5703 81.9467 11.358 82.8137 11.358V10.358C81.774 10.358 80.8069 10.6151 79.9222 11.1298L80.4251 11.9942ZM82.8137 11.358C83.6426 11.358 84.4347 11.5804 85.1975 12.0354L85.7098 11.1766C84.8007 10.6343 83.8328 10.358 82.8137 10.358V11.358ZM85.2032 12.0387C85.9626 12.4784 86.5061 13.047 86.8545 13.7436L87.7489 13.2964C87.3052 12.409 86.6168 11.7016 85.7042 11.1733L85.2032 12.0387ZM87.8017 13.52V4.5H86.8017V13.52H87.8017ZM87.3017 5H88.0057V4H87.3017V5ZM87.5057 4.5V21H88.5057V4.5H87.5057ZM88.0057 20.5H87.3017V21.5H88.0057V20.5ZM87.8017 21V18.602H86.8017V21H87.8017ZM86.8646 18.3592C86.4714 19.0669 85.9003 19.6414 85.1372 20.0833L85.6382 20.9487C86.547 20.4226 87.2519 19.7211 87.7388 18.8448L86.8646 18.3592ZM85.1338 20.0852C84.3842 20.527 83.6132 20.742 82.8137 20.742V21.742C83.8035 21.742 84.7485 21.473 85.6415 20.9468L85.1338 20.0852ZM82.7917 21.126C83.6879 21.126 84.5244 20.8966 85.2916 20.4396L84.7798 19.5804C84.1683 19.9447 83.5088 20.126 82.7917 20.126V21.126ZM85.2942 20.438C86.0667 19.9713 86.6835 19.3556 87.1372 18.5939L86.2781 18.0821C85.9105 18.6991 85.4127 19.198 84.7771 19.582L85.2942 20.438ZM87.1356 18.5966C87.6071 17.8162 87.8457 16.9717 87.8457 16.072H86.8457C86.8457 16.7857 86.6589 17.4518 86.2797 18.0794L87.1356 18.5966ZM87.8457 16.072C87.8457 15.1723 87.6071 14.3278 87.1356 13.5474L86.2797 14.0646C86.6589 14.6922 86.8457 15.3583 86.8457 16.072H87.8457ZM87.1396 13.5541C86.6863 12.7771 86.0691 12.1522 85.2942 11.684L84.7771 12.54C85.4102 12.9225 85.9077 13.4269 86.2758 14.0579L87.1396 13.5541ZM85.2982 11.6865C84.5303 11.2127 83.6915 10.974 82.7917 10.974V11.974C83.5052 11.974 84.1624 12.1607 84.7731 12.5375L85.2982 11.6865ZM82.7917 10.974C81.8919 10.974 81.053 11.2127 80.2851 11.6865L80.8102 12.5375C81.421 12.1607 82.0781 11.974 82.7917 11.974V10.974ZM80.2918 11.6824C79.5285 12.1372 78.9184 12.7561 78.4658 13.5321L79.3296 14.0359C79.6983 13.4039 80.1882 12.9082 80.8036 12.5416L80.2918 11.6824ZM78.4658 13.5321C78.011 14.3117 77.7817 15.1538 77.7817 16.05H78.7817C78.7817 15.3328 78.963 14.6643 79.3296 14.0359L78.4658 13.5321ZM77.7817 16.05C77.7817 16.9557 78.0011 17.803 78.4399 18.5831L79.3115 18.0929C78.9583 17.465 78.7817 16.787 78.7817 16.05H77.7817ZM78.4461 18.5939C78.8984 19.3531 79.506 19.9683 80.2631 20.4355L80.7882 19.5845C80.1667 19.201 79.6743 18.7016 79.3052 18.0821L78.4461 18.5939ZM80.2737 20.4419C81.0534 20.8967 81.8955 21.126 82.7917 21.126V20.126C82.0745 20.126 81.406 19.9447 80.7776 19.5781L80.2737 20.4419ZM98.4985 5.138H98.9985V4.638H98.4985V5.138ZM94.6925 5.138H94.1925V5.638H94.6925V5.138ZM94.6925 4.5V4H94.1925V4.5H94.6925ZM102.986 4.5H103.486V4H102.986V4.5ZM102.986 5.138V5.638H103.486V5.138H102.986ZM99.2245 5.138V4.638H98.7245V5.138H99.2245ZM99.2245 21V21.5H99.7245V21H99.2245ZM98.4985 21H97.9985V21.5H98.4985V21ZM98.4985 4.638H94.6925V5.638H98.4985V4.638ZM95.1925 5.138V4.5H94.1925V5.138H95.1925ZM94.6925 5H102.986V4H94.6925V5ZM102.486 4.5V5.138H103.486V4.5H102.486ZM102.986 4.638H99.2245V5.638H102.986V4.638ZM98.7245 5.138V21H99.7245V5.138H98.7245ZM99.2245 20.5H98.4985V21.5H99.2245V20.5ZM98.9985 21V5.138H97.9985V21H98.9985ZM104.833 4.5V4H104.333V4.5H104.833ZM105.537 4.5H106.037V4H105.537V4.5ZM105.537 13.146H105.037L105.99 13.3574L105.537 13.146ZM107.099 11.518L107.35 11.9505L107.353 11.949L107.099 11.518ZM112.577 12.002L112.22 12.3521L112.224 12.3556L112.577 12.002ZM113.721 21V21.5H114.221V21H113.721ZM113.017 21H112.517V21.5H113.017V21ZM112.049 12.464L111.688 12.8095L111.696 12.8176L112.049 12.464ZM107.429 11.98L107.67 12.4182L107.679 12.4135L107.429 11.98ZM106.043 13.344L106.474 13.598L106.477 13.5932L106.043 13.344ZM105.537 21V21.5H106.037V21H105.537ZM104.833 21H104.333V21.5H104.833V21ZM104.833 5H105.537V4H104.833V5ZM105.037 4.5V13.146H106.037V4.5H105.037ZM105.99 13.3574C106.248 12.8046 106.69 12.3332 107.35 11.9505L106.848 11.0855C106.042 11.5534 105.442 12.1674 105.084 12.9346L105.99 13.3574ZM107.353 11.949C108.035 11.5478 108.703 11.358 109.365 11.358V10.358C108.502 10.358 107.66 10.6082 106.846 11.087L107.353 11.949ZM109.365 11.358C110.667 11.358 111.593 11.712 112.22 12.3521L112.934 11.6519C112.066 10.7667 110.85 10.358 109.365 10.358V11.358ZM112.224 12.3556C112.867 12.9993 113.221 13.9348 113.221 15.236H114.221C114.221 13.7505 113.812 12.53 112.931 11.6484L112.224 12.3556ZM113.221 15.236V21H114.221V15.236H113.221ZM113.721 20.5H113.017V21.5H113.721V20.5ZM113.517 21V15.236H112.517V21H113.517ZM113.517 15.236C113.517 13.9444 113.169 12.8765 112.403 12.1104L111.696 12.8176C112.22 13.3422 112.517 14.1222 112.517 15.236H113.517ZM112.411 12.1186C111.662 11.3349 110.622 10.974 109.365 10.974V11.974C110.426 11.974 111.175 12.2731 111.688 12.8094L112.411 12.1186ZM109.365 10.974C108.577 10.974 107.846 11.1638 107.18 11.5465L107.679 12.4135C108.186 12.1215 108.745 11.974 109.365 11.974V10.974ZM107.188 11.5419C106.52 11.9092 105.992 12.4296 105.61 13.0948L106.477 13.5932C106.769 13.0851 107.165 12.6961 107.67 12.4181L107.188 11.5419ZM105.613 13.09C105.228 13.742 105.037 14.4609 105.037 15.236H106.037C106.037 14.6324 106.184 14.09 106.474 13.598L105.613 13.09ZM105.037 15.236V21H106.037V15.236H105.037ZM105.537 20.5H104.833V21.5H105.537V20.5ZM105.333 21V4.5H104.333V21H105.333ZM118.501 20.626L118.238 21.0513L118.244 21.0547L118.501 20.626ZM116.609 18.668L116.172 18.9102L116.174 18.9135L116.609 18.668ZM116.609 13.388L116.177 13.1365L116.174 13.1425L116.609 13.388ZM118.501 11.474L118.756 11.9042L118.759 11.9027L118.501 11.474ZM123.825 11.474L123.564 11.9007L123.574 11.9062L123.825 11.474ZM125.717 13.388L125.282 13.6335L125.717 13.388ZM125.739 18.712L126.178 18.9514L126.18 18.9481L125.739 18.712ZM123.891 20.648L124.15 21.076L124.152 21.0746L123.891 20.648ZM123.495 20.098L123.233 19.6725L123.233 19.6725L123.495 20.098ZM125.101 18.404L124.663 18.1627L124.662 18.1659L125.101 18.404ZM125.101 13.718L125.539 13.4767L125.539 13.4767L125.101 13.718ZM123.473 12.002L123.211 12.4275L123.211 12.4275L123.473 12.002ZM118.875 12.024L119.138 12.4495L119.14 12.448L118.875 12.024ZM117.225 13.74L116.791 13.4919L116.787 13.4987L117.225 13.74ZM117.225 18.404L116.787 18.6454L116.793 18.6559L117.225 18.404ZM118.875 20.098L118.613 20.5235L118.617 20.526L118.875 20.098ZM121.207 20.852C120.295 20.852 119.483 20.6318 118.759 20.1973L118.244 21.0547C119.133 21.5882 120.125 21.852 121.207 21.852V20.852ZM118.764 20.2007C118.028 19.7453 117.457 19.1538 117.045 18.4225L116.174 18.9135C116.671 19.7956 117.362 20.5094 118.238 21.0513L118.764 20.2007ZM117.047 18.4258C116.634 17.6798 116.427 16.876 116.427 16.006H115.427C115.427 17.0427 115.675 18.0135 116.172 18.9102L117.047 18.4258ZM116.427 16.006C116.427 15.1521 116.633 14.3642 117.045 13.6335L116.174 13.1425C115.676 14.0252 115.427 14.9826 115.427 16.006H116.427ZM117.041 13.6394C117.469 12.9054 118.039 12.3294 118.756 11.9041L118.246 11.0439C117.38 11.5573 116.689 12.2572 116.177 13.1366L117.041 13.6394ZM118.759 11.9027C119.484 11.4675 120.289 11.248 121.185 11.248V10.248C120.116 10.248 119.132 10.5125 118.244 11.0453L118.759 11.9027ZM121.185 11.248C122.065 11.248 122.855 11.4667 123.565 11.9006L124.086 11.0474C123.212 10.5133 122.241 10.248 121.185 10.248V11.248ZM123.574 11.9062C124.304 12.3311 124.871 12.905 125.282 13.6335L126.153 13.1425C125.654 12.2577 124.96 11.5555 124.077 11.0418L123.574 11.9062ZM125.282 13.6335C125.694 14.3642 125.899 15.1521 125.899 16.006H126.899C126.899 14.9826 126.65 14.0252 126.153 13.1425L125.282 13.6335ZM125.899 16.006C125.899 16.9109 125.698 17.7312 125.299 18.4759L126.18 18.9481C126.661 18.0502 126.899 17.0664 126.899 16.006H125.899ZM125.3 18.4726C124.903 19.2015 124.349 19.7826 123.631 20.2214L124.152 21.0746C125.018 20.5454 125.696 19.8359 126.178 18.9514L125.3 18.4726ZM123.633 20.22C122.942 20.637 122.139 20.852 121.207 20.852V21.852C122.3 21.852 123.286 21.5977 124.15 21.076L123.633 20.22ZM121.207 21.236C122.133 21.236 122.987 20.9992 123.758 20.5235L123.233 19.6725C122.625 20.0475 121.954 20.236 121.207 20.236V21.236ZM123.758 20.5235C124.521 20.0528 125.117 19.4239 125.541 18.6421L124.662 18.1659C124.322 18.7921 123.849 19.2925 123.233 19.6725L123.758 20.5235ZM125.539 18.6453C125.977 17.85 126.195 16.9818 126.195 16.05H125.195C125.195 16.8195 125.017 17.5207 124.663 18.1627L125.539 18.6453ZM126.195 16.05C126.195 15.1313 125.977 14.2707 125.539 13.4767L124.663 13.9593C125.018 14.6026 125.195 15.2967 125.195 16.05H126.195ZM125.539 13.4767C125.102 12.6836 124.5 12.0477 123.736 11.5765L123.211 12.4275C123.826 12.807 124.308 13.3151 124.663 13.9593L125.539 13.4767ZM123.736 11.5765C122.965 11.1008 122.111 10.864 121.185 10.864V11.864C121.932 11.864 122.603 12.0525 123.211 12.4275L123.736 11.5765ZM121.185 10.864C120.256 10.864 119.394 11.11 118.61 11.6L119.14 12.448C119.764 12.058 120.442 11.864 121.185 11.864V10.864ZM118.613 11.5985C117.851 12.0687 117.242 12.7024 116.791 13.4919L117.659 13.9881C118.03 13.3403 118.521 12.83 119.138 12.4495L118.613 11.5985ZM116.787 13.4987C116.35 14.2927 116.131 15.1533 116.131 16.072H117.131C117.131 15.3187 117.309 14.6246 117.663 13.9813L116.787 13.4987ZM116.131 16.072C116.131 16.9907 116.35 17.8513 116.787 18.6453L117.663 18.1627C117.309 17.5194 117.131 16.8253 117.131 16.072H116.131ZM116.793 18.6559C117.245 19.4304 117.853 20.0548 118.613 20.5235L119.138 19.6725C118.519 19.2905 118.027 18.7856 117.657 18.1521L116.793 18.6559ZM118.617 20.526C119.401 21.0001 120.269 21.236 121.207 21.236V20.236C120.444 20.236 119.757 20.0466 119.134 19.67L118.617 20.526ZM129.717 20.098L129.36 20.4481L129.363 20.4516L129.717 20.098ZM128.595 11.1V10.6H128.095V11.1H128.595ZM129.299 11.1H129.799V10.6H129.299V11.1ZM130.245 19.658L129.883 20.0035L129.891 20.0116L130.245 19.658ZM134.887 20.164L135.119 20.6068L135.128 20.6021L134.887 20.164ZM136.779 11.1V10.6H136.279V11.1H136.779ZM137.483 11.1H137.983V10.6H137.483V11.1ZM137.483 21V21.5H137.983V21H137.483ZM136.779 21H136.279V21.5H136.779V21ZM136.779 19.152H137.279L136.34 18.9118L136.779 19.152ZM135.261 20.67L135.507 21.1053L135.514 21.1012L135.261 20.67ZM132.951 20.742C131.65 20.742 130.714 20.3882 130.071 19.7444L129.363 20.4516C130.245 21.3332 131.465 21.742 132.951 21.742V20.742ZM130.074 19.7479C129.443 19.1046 129.095 18.1678 129.095 16.864H128.095C128.095 18.3469 128.495 19.5661 129.36 20.4481L130.074 19.7479ZM129.095 16.864V11.1H128.095V16.864H129.095ZM128.595 11.6H129.299V10.6H128.595V11.6ZM128.799 11.1V16.864H129.799V11.1H128.799ZM128.799 16.864C128.799 18.1533 129.139 19.2239 129.883 20.0034L130.606 19.3126C130.09 18.7721 129.799 17.9801 129.799 16.864H128.799ZM129.891 20.0116C130.654 20.7742 131.697 21.126 132.951 21.126V20.126C131.887 20.126 131.127 19.8324 130.599 19.3044L129.891 20.0116ZM132.951 21.126C133.731 21.126 134.457 20.9547 135.119 20.6067L134.655 19.7213C134.144 19.9893 133.579 20.126 132.951 20.126V21.126ZM135.128 20.6021C135.793 20.2366 136.32 19.7259 136.704 19.076L135.842 18.568C135.551 19.0621 135.155 19.4461 134.646 19.7259L135.128 20.6021ZM136.704 19.076C137.091 18.4192 137.279 17.6771 137.279 16.864H136.279C136.279 17.5176 136.13 18.0808 135.842 18.568L136.704 19.076ZM137.279 16.864V11.1H136.279V16.864H137.279ZM136.779 11.6H137.483V10.6H136.779V11.6ZM136.983 11.1V21H137.983V11.1H136.983ZM137.483 20.5H136.779V21.5H137.483V20.5ZM137.279 21V19.152H136.279V21H137.279ZM136.34 18.9118C136.051 19.4398 135.614 19.8832 135.008 20.2388L135.514 21.1012C136.258 20.6648 136.832 20.0962 137.218 19.3922L136.34 18.9118ZM135.015 20.2347C134.424 20.5688 133.74 20.742 132.951 20.742V21.742C133.892 21.742 134.749 21.5338 135.507 21.1053L135.015 20.2347ZM142.593 25.004L142.376 25.4545L142.376 25.4545L142.593 25.004ZM140.745 23.508H140.245V23.6682L140.338 23.7986L140.745 23.508ZM140.745 22.496L141.185 22.2579L140.245 22.496H140.745ZM142.527 24.256L142.276 24.6882L142.279 24.6901L142.527 24.256ZM148.291 23.706L147.925 23.3658L147.922 23.369L148.291 23.706ZM149.435 18.602H149.935L148.988 18.3784L149.435 18.602ZM147.565 20.538L147.816 20.9707L147.818 20.9693L147.565 20.538ZM142.307 20.56L142.056 20.9922L142.056 20.9922L142.307 20.56ZM140.393 18.668L139.961 18.9195L139.963 18.9229L140.393 18.668ZM140.393 13.498L140.823 13.7529L140.825 13.7494L140.393 13.498ZM142.307 11.584L142.056 11.1518L142.056 11.1518L142.307 11.584ZM149.435 13.564L148.985 13.7811L149.935 13.564H149.435ZM149.435 11.1V10.6H148.935V11.1H149.435ZM150.139 11.1H150.639V10.6H150.139V11.1ZM148.819 24.168L148.457 23.8231L148.451 23.8291L148.819 24.168ZM147.213 20.032L147.469 20.4616L147.476 20.4575L147.213 20.032ZM148.841 18.36L148.409 18.1081L148.407 18.1109L148.841 18.36ZM148.841 13.806L148.405 14.0512L148.411 14.0619L148.841 13.806ZM147.213 12.134L146.95 12.5596L146.957 12.5636L147.213 12.134ZM142.681 12.134L142.937 12.5636L142.94 12.562L142.681 12.134ZM141.009 13.806L140.581 13.5474L140.579 13.5501L141.009 13.806ZM141.009 18.36L140.577 18.612L140.583 18.6226L141.009 18.36ZM142.681 20.032L142.418 20.4576L142.429 20.4639L142.681 20.032ZM145.035 25.076C144.278 25.076 143.538 24.904 142.81 24.5535L142.376 25.4545C143.232 25.8667 144.12 26.076 145.035 26.076V25.076ZM142.81 24.5535C142.081 24.2027 141.536 23.7547 141.152 23.2174L140.338 23.7986C140.834 24.4933 141.521 25.0426 142.376 25.4545L142.81 24.5535ZM141.245 23.508V22.496H140.245V23.508H141.245ZM140.305 22.7341C140.737 23.5314 141.403 24.1804 142.276 24.6882L142.778 23.8238C142.038 23.3929 141.515 22.8686 141.185 22.2579L140.305 22.7341ZM142.279 24.6901C143.167 25.1977 144.088 25.46 145.035 25.46V24.46C144.281 24.46 143.53 24.253 142.775 23.8219L142.279 24.6901ZM145.035 25.46C146.547 25.46 147.781 25.0073 148.66 24.043L147.922 23.369C147.276 24.0767 146.339 24.46 145.035 24.46V25.46ZM148.657 24.0462C149.537 23.0995 149.935 21.7472 149.935 20.076H148.935C148.935 21.6021 148.571 22.6699 147.925 23.3658L148.657 24.0462ZM149.935 20.076V18.602H148.935V20.076H149.935ZM148.988 18.3784C148.64 19.0741 148.089 19.6512 147.312 20.1067L147.818 20.9693C148.742 20.4275 149.438 19.7139 149.882 18.8256L148.988 18.3784ZM147.314 20.1053C146.551 20.5473 145.757 20.764 144.925 20.764V21.764C145.941 21.764 146.907 21.4967 147.816 20.9707L147.314 20.1053ZM144.925 20.764C144.074 20.764 143.288 20.5525 142.558 20.1278L142.056 20.9922C142.939 21.5062 143.899 21.764 144.925 21.764V20.764ZM142.558 20.1278C141.824 19.7008 141.248 19.1307 140.823 18.4131L139.963 18.9229C140.476 19.7893 141.176 20.4806 142.056 20.9922L142.558 20.1278ZM140.825 18.4166C140.4 17.6854 140.189 16.9067 140.189 16.072H139.189C139.189 17.0853 139.448 18.0372 139.961 18.9194L140.825 18.4166ZM140.189 16.072C140.189 15.2373 140.4 14.4674 140.823 13.7529L139.963 13.2431C139.448 14.1126 139.189 15.0587 139.189 16.072H140.189ZM140.825 13.7494C141.251 13.0177 141.827 12.4419 142.558 12.0162L142.056 11.1518C141.174 11.6647 140.474 12.365 139.961 13.2466L140.825 13.7494ZM142.558 12.0162C143.288 11.5915 144.074 11.38 144.925 11.38V10.38C143.899 10.38 142.939 10.6378 142.056 11.1518L142.558 12.0162ZM144.925 11.38C145.805 11.38 146.612 11.5988 147.355 12.0368L147.863 11.1752C146.963 10.6452 145.981 10.38 144.925 10.38V11.38ZM147.355 12.0368C148.095 12.473 148.634 13.0531 148.985 13.7811L149.885 13.3468C149.444 12.4323 148.765 11.707 147.863 11.1752L147.355 12.0368ZM149.935 13.564V11.1H148.935V13.564H149.935ZM149.435 11.6H150.139V10.6H149.435V11.6ZM149.639 11.1V20.076H150.639V11.1H149.639ZM149.639 20.076C149.639 21.8049 149.217 23.0247 148.457 23.8232L149.181 24.5128C150.181 23.4633 150.639 21.9551 150.639 20.076H149.639ZM148.451 23.8291C147.707 24.6367 146.597 25.076 145.035 25.076V26.076C146.788 26.076 148.2 25.5767 149.187 24.5069L148.451 23.8291ZM144.969 21.148C145.865 21.148 146.702 20.9186 147.469 20.4616L146.957 19.6024C146.346 19.9667 145.686 20.148 144.969 20.148V21.148ZM147.476 20.4575C148.234 19.9894 148.836 19.3719 149.275 18.6091L148.407 18.1109C148.054 18.7267 147.57 19.224 146.95 19.6065L147.476 20.4575ZM149.273 18.6119C149.729 17.8308 149.957 16.9811 149.957 16.072H148.957C148.957 16.8055 148.775 17.4812 148.409 18.1081L149.273 18.6119ZM149.957 16.072C149.957 15.1628 149.728 14.3187 149.271 13.5501L148.411 14.0619C148.775 14.6719 148.957 15.3385 148.957 16.072H149.957ZM149.277 13.5609C148.838 12.7813 148.234 12.1601 147.469 11.7044L146.957 12.5636C147.571 12.9292 148.052 13.4227 148.405 14.0511L149.277 13.5609ZM147.476 11.7085C146.708 11.2347 145.869 10.996 144.969 10.996V11.996C145.683 11.996 146.34 12.1827 146.95 12.5595L147.476 11.7085ZM144.969 10.996C144.056 10.996 143.204 11.2336 142.422 11.706L142.94 12.562C143.566 12.1837 144.239 11.996 144.969 11.996V10.996ZM142.425 11.7044C141.663 12.1582 141.048 12.775 140.581 13.5474L141.437 14.0646C141.821 13.429 142.32 12.9311 142.937 12.5636L142.425 11.7044ZM140.579 13.5501C140.122 14.3187 139.893 15.1628 139.893 16.072H140.893C140.893 15.3385 141.075 14.6719 141.439 14.0619L140.579 13.5501ZM139.893 16.072C139.893 16.9811 140.121 17.8308 140.577 18.6119L141.441 18.1081C141.075 17.4812 140.893 16.8055 140.893 16.072H139.893ZM140.583 18.6226C141.05 19.3782 141.663 19.9913 142.418 20.4575L142.944 19.6065C142.32 19.222 141.819 18.7205 141.435 18.0974L140.583 18.6226ZM142.429 20.4639C143.21 20.9195 144.06 21.148 144.969 21.148V20.148C144.235 20.148 143.56 19.9658 142.933 19.6001L142.429 20.4639ZM152.915 4.5V4H152.415V4.5H152.915ZM153.619 4.5H154.119V4H153.619V4.5ZM153.619 13.146H153.119L154.072 13.3574L153.619 13.146ZM155.181 11.518L155.432 11.9505L155.435 11.949L155.181 11.518ZM160.659 12.002L160.302 12.3521L160.306 12.3556L160.659 12.002ZM161.803 21V21.5H162.303V21H161.803ZM161.099 21H160.599V21.5H161.099V21ZM160.131 12.464L159.77 12.8095L159.778 12.8176L160.131 12.464ZM155.511 11.98L155.752 12.4182L155.761 12.4135L155.511 11.98ZM154.125 13.344L154.556 13.598L154.559 13.5932L154.125 13.344ZM153.619 21V21.5H154.119V21H153.619ZM152.915 21H152.415V21.5H152.915V21ZM152.915 5H153.619V4H152.915V5ZM153.119 4.5V13.146H154.119V4.5H153.119ZM154.072 13.3574C154.33 12.8046 154.772 12.3332 155.432 11.9505L154.93 11.0855C154.124 11.5534 153.524 12.1674 153.166 12.9346L154.072 13.3574ZM155.435 11.949C156.117 11.5478 156.786 11.358 157.447 11.358V10.358C156.584 10.358 155.742 10.6082 154.928 11.087L155.435 11.949ZM157.447 11.358C158.749 11.358 159.675 11.712 160.302 12.3521L161.016 11.6519C160.148 10.7667 158.932 10.358 157.447 10.358V11.358ZM160.306 12.3556C160.949 12.9993 161.303 13.9348 161.303 15.236H162.303C162.303 13.7505 161.894 12.53 161.013 11.6484L160.306 12.3556ZM161.303 15.236V21H162.303V15.236H161.303ZM161.803 20.5H161.099V21.5H161.803V20.5ZM161.599 21V15.236H160.599V21H161.599ZM161.599 15.236C161.599 13.9444 161.251 12.8765 160.485 12.1104L159.778 12.8176C160.302 13.3422 160.599 14.1222 160.599 15.236H161.599ZM160.493 12.1186C159.744 11.3349 158.704 10.974 157.447 10.974V11.974C158.508 11.974 159.257 12.2731 159.77 12.8094L160.493 12.1186ZM157.447 10.974C156.66 10.974 155.928 11.1638 155.262 11.5465L155.761 12.4135C156.268 12.1215 156.827 11.974 157.447 11.974V10.974ZM155.27 11.5419C154.603 11.9092 154.074 12.4296 153.692 13.0948L154.559 13.5932C154.851 13.0851 155.247 12.6961 155.752 12.4181L155.27 11.5419ZM153.695 13.09C153.31 13.742 153.119 14.4609 153.119 15.236H154.119C154.119 14.6324 154.266 14.09 154.556 13.598L153.695 13.09ZM153.119 15.236V21H154.119V15.236H153.119ZM153.619 20.5H152.915V21.5H153.619V20.5ZM153.415 21V4.5H152.415V21H153.415ZM168.123 21.132V21.632H168.623V21.132H168.123ZM165.417 20.142L165.075 20.5068L165.079 20.5103L165.417 20.142ZM164.361 7.118V6.618H163.861V7.118H164.361ZM165.065 7.118H165.565V6.618H165.065V7.118ZM165.065 11.1H164.565V11.6H165.065V11.1ZM168.101 11.1H168.601V10.6H168.101V11.1ZM168.101 11.716V12.216H168.601V11.716H168.101ZM165.065 11.716V11.216H164.565V11.716H165.065ZM165.923 19.702L165.574 20.0602L165.584 20.069L165.923 19.702ZM168.123 20.516H168.623V20.016H168.123V20.516ZM168.123 20.632C167.148 20.632 166.371 20.3393 165.756 19.7737L165.079 20.5103C165.901 21.2647 166.928 21.632 168.123 21.632V20.632ZM165.759 19.7772C165.176 19.2305 164.861 18.4645 164.861 17.414H163.861C163.861 18.6809 164.251 19.7335 165.075 20.5068L165.759 19.7772ZM164.861 17.414V7.118H163.861V17.414H164.861ZM164.361 7.618H165.065V6.618H164.361V7.618ZM164.565 7.118V11.1H165.565V7.118H164.565ZM165.065 11.6H168.101V10.6H165.065V11.6ZM167.601 11.1V11.716H168.601V11.1H167.601ZM168.101 11.216H165.065V12.216H168.101V11.216ZM164.565 11.716V17.414H165.565V11.716H164.565ZM164.565 17.414C164.565 18.4862 164.886 19.3892 165.574 20.0601L166.272 19.3439C165.817 18.9001 165.565 18.2778 165.565 17.414H164.565ZM165.584 20.069C166.273 20.7061 167.131 21.016 168.123 21.016V20.016C167.355 20.016 166.747 19.7832 166.263 19.335L165.584 20.069ZM167.623 20.516V21.132H168.623V20.516H167.623ZM170.502 20.89L170.293 21.3445L170.303 21.3489L170.502 20.89ZM169.336 19.944H168.836V20.0855L168.91 20.206L169.336 19.944ZM169.336 18.778L169.793 18.5759L168.836 18.778H169.336ZM170.48 20.186L170.211 20.6079L170.221 20.6136L170.48 20.186ZM174.066 19.966L174.419 20.3196L174.425 20.3137L174.066 19.966ZM174.352 16.842L173.95 17.1393L173.956 17.1477L174.352 16.842ZM173.142 15.83L173.401 15.4022L173.392 15.3973L173.142 15.83ZM172.306 15.346L172.046 15.773L172.055 15.7787L172.306 15.346ZM170.942 14.488L170.642 14.888L170.653 14.8963L170.665 14.904L170.942 14.488ZM170.238 13.762L169.815 14.0291L169.822 14.0393L170.238 13.762ZM170.59 11.386L170.915 11.7656L170.915 11.7656L170.59 11.386ZM174.22 11.408H174.72V11.1424L174.5 10.9937L174.22 11.408ZM174.22 12.376L173.821 12.6776L174.72 13.8663V12.376H174.22ZM171.118 11.826L170.806 11.4356L170.806 11.4356L171.118 11.826ZM170.942 13.586L170.533 13.8743L170.538 13.8802L170.542 13.886L170.942 13.586ZM171.668 14.246L171.39 14.6621L171.399 14.6678L171.668 14.246ZM173.252 15.17L173.499 14.7353L173.496 14.7337L173.252 15.17ZM174.902 16.49L174.506 16.7961L174.511 16.8023L174.902 16.49ZM174.528 20.428L174.867 20.795L174.868 20.7947L174.528 20.428ZM172.372 20.742C171.723 20.742 171.17 20.634 170.7 20.4311L170.303 21.3489C170.92 21.6153 171.612 21.742 172.372 21.742V20.742ZM170.711 20.4357C170.228 20.2141 169.93 19.9553 169.762 19.682L168.91 20.206C169.211 20.6954 169.69 21.0673 170.293 21.3443L170.711 20.4357ZM169.836 19.944V18.778H168.836V19.944H169.836ZM168.879 18.9801C169.189 19.6826 169.629 20.2369 170.211 20.6078L170.748 19.7642C170.363 19.5191 170.04 19.1348 169.793 18.5759L168.879 18.9801ZM170.221 20.6136C170.804 20.9672 171.517 21.126 172.328 21.126V20.126C171.643 20.126 171.124 19.9915 170.739 19.7584L170.221 20.6136ZM172.328 21.126C173.157 21.126 173.871 20.868 174.419 20.3196L173.712 19.6124C173.381 19.944 172.936 20.126 172.328 20.126V21.126ZM174.425 20.3137C174.966 19.7549 175.226 19.0458 175.226 18.228H174.226C174.226 18.8182 174.046 19.2677 173.707 19.6183L174.425 20.3137ZM175.226 18.228C175.226 17.5665 175.09 16.9794 174.748 16.5363L173.956 17.1477C174.112 17.3499 174.226 17.6869 174.226 18.228H175.226ZM174.754 16.5448C174.45 16.1342 173.986 15.7567 173.401 15.4022L172.883 16.2577C173.412 16.578 173.755 16.8751 173.95 17.1392L174.754 16.5448ZM173.392 15.3973L172.556 14.9133L172.055 15.7787L172.891 16.2627L173.392 15.3973ZM172.566 14.9191C171.966 14.5534 171.519 14.2716 171.219 14.072L170.665 14.904C170.981 15.1151 171.443 15.4052 172.046 15.7729L172.566 14.9191ZM171.242 14.088C170.987 13.8968 170.794 13.6948 170.654 13.4846L169.822 14.0393C170.034 14.3572 170.31 14.6392 170.642 14.888L171.242 14.088ZM170.661 13.495C170.541 13.305 170.474 13.0771 170.474 12.794H169.474C169.474 13.2442 169.583 13.6616 169.815 14.029L170.661 13.495ZM170.474 12.794C170.474 12.3393 170.626 12.0139 170.915 11.7656L170.264 11.0064C169.733 11.4621 169.474 12.0754 169.474 12.794H170.474ZM170.915 11.7656C171.217 11.5074 171.628 11.358 172.196 11.358V10.358C171.444 10.358 170.785 10.5606 170.264 11.0064L170.915 11.7656ZM172.196 11.358C172.926 11.358 173.497 11.5232 173.94 11.8223L174.5 10.9937C173.857 10.5594 173.079 10.358 172.196 10.358V11.358ZM173.72 11.408V12.376H174.72V11.408H173.72ZM174.619 12.0744C174.056 11.3308 173.246 10.974 172.262 10.974V11.974C172.979 11.974 173.474 12.2185 173.821 12.6776L174.619 12.0744ZM172.262 10.974C171.708 10.974 171.208 11.1138 170.806 11.4356L171.43 12.2164C171.615 12.0689 171.877 11.974 172.262 11.974V10.974ZM170.806 11.4356C170.397 11.7624 170.178 12.2052 170.178 12.728H171.178C171.178 12.5175 171.252 12.3589 171.43 12.2164L170.806 11.4356ZM170.178 12.728C170.178 13.1477 170.294 13.5357 170.533 13.8743L171.35 13.2977C171.237 13.1377 171.178 12.9537 171.178 12.728H170.178ZM170.542 13.886C170.759 14.1761 171.047 14.4331 171.391 14.662L171.945 13.83C171.673 13.6482 171.476 13.4652 171.342 13.286L170.542 13.886ZM171.399 14.6678C171.735 14.8813 172.273 15.1951 173.008 15.6063L173.496 14.7337C172.764 14.3236 172.246 14.0214 171.936 13.8242L171.399 14.6678ZM173.005 15.6046C173.721 16.012 174.21 16.4129 174.507 16.7961L175.297 16.1839C174.89 15.6578 174.279 15.1786 173.499 14.7354L173.005 15.6046ZM174.511 16.8023C174.775 17.1317 174.93 17.5911 174.93 18.228H175.93C175.93 17.4276 175.733 16.7283 175.292 16.1777L174.511 16.8023ZM174.93 18.228C174.93 19.015 174.676 19.6094 174.188 20.0613L174.868 20.7947C175.583 20.1319 175.93 19.2597 175.93 18.228H174.93ZM174.188 20.061C173.7 20.5123 173.106 20.742 172.372 20.742V21.742C173.34 21.742 174.182 21.429 174.867 20.795L174.188 20.061Z" fill="#F38704"/>
<defs>
<filter id="filter0_i" x="0.534" y="3.56" width="175.396" height="26.516" filterUnits="userSpaceOnUse" color-interpolation-filters="sRGB">
<feFlood flood-opacity="0" result="BackgroundImageFix"/>
<feBlend mode="normal" in="SourceGraphic" in2="BackgroundImageFix" result="shape"/>
<feColorMatrix in="SourceAlpha" type="matrix" values="0 0 0 0 0 0 0 0 0 0 0 0 0 0 0 0 0 0 127 0" result="hardAlpha"/>
<feOffset dy="4"/>
<feGaussianBlur stdDeviation="2"/>
<feComposite in2="hardAlpha" operator="arithmetic" k2="-1" k3="1"/>
<feColorMatrix type="matrix" values="0 0 0 0 0 0 0 0 0 0 0 0 0 0 0 0 0 0 0.25 0"/>
<feBlend mode="normal" in2="shape" result="effect1_innerShadow"/>
</filter>
</defs>
</svg>
